<?xml version="1.0" ?><svg id="Layer_1" style="enable-background:new 0 0 24 24;" version="1.1" viewBox="0 0 24 24" xml:space="preserve" xmlns="http://www.w3.org/2000/svg" xmlns:xlink="http://www.w3.org/1999/xlink"><g id="XMLID_1705_"><path d="M19.5,22.493h-15l-3-12l3-4l4,4V6.966c0-0.308,0.095-0.608,0.271-0.86L12,1.493   l3.229,4.613c0.176,0.252,0.271,0.552,0.271,0.86v3.527l4-4l3,4L19.5,22.493z" id="XMLID_1537_" style="fill:#67686B;"/><path d="M10,11.993V6.966   c0-0.308,0.095-0.608,0.271-0.86l2.479-3.541L12,1.493L8.771,6.106C8.594,6.358,8.5,6.658,8.5,6.966v3.527L10,11.993z" id="XMLID_1552_" style="opacity:0.2;fill:#FFFFFF;enable-background:new    ;"/><polygon id="XMLID_1553_" points="14,13.493 20.143,7.35 19.5,6.493    14,11.993  " style="opacity:0.2;fill:#FFFFFF;enable-background:new    ;"/><polygon id="XMLID_1554_" points="5.357,7.35 4.5,6.493 1.5,10.493    4.5,22.493 6,22.493 3,10.493  " style="opacity:0.2;fill:#FFFFFF;enable-background:new    ;"/><path d="M14,11.993V6.966c0-0.308-0.095-0.608-0.271-0.86   L11.25,2.565L12,1.493l3.229,4.613c0.177,0.252,0.271,0.552,0.271,0.86v3.527L14,11.993z" id="XMLID_1555_" style="opacity:0.1;enable-background:new    ;"/><polygon id="XMLID_1551_" points="10,13.493 3.857,7.35 4.5,6.493 10,11.993  " style="opacity:0.1;enable-background:new    ;"/><polygon id="XMLID_1550_" points="18.643,7.35 19.5,6.493 22.5,10.493    19.5,22.493 18,22.493 21,10.493  " style="opacity:0.1;enable-background:new    ;"/><path d="M13,9.493h-2v-2c0-0.552,0.448-1,1-1l0,0c0.552,0,1,0.448,1,1V9.493z" id="XMLID_1548_" style="fill:#F99F38;"/><path d="M6.5,14.493H5l-0.5-2c0-0.552,0.448-1,1-1l0,0c0.552,0,1,0.448,1,1V14.493z" id="XMLID_1547_" style="fill:#F99F38;"/><path d="M19,14.493h-1.5v-2c0-0.552,0.448-1,1-1l0,0c0.552,0,1,0.448,1,1L19,14.493z" id="XMLID_1538_" style="fill:#F99F38;"/><path d="M15.5,22.493v-4.5c0-1.933-1.567-3.5-3.5-3.5l0,0c-1.933,0-3.5,1.567-3.5,3.5v4.5   H15.5z" id="XMLID_1549_" style="fill:#9D581F;"/><path d="M8.5,17.993v4.5H10v-4.5   c0-1.933,0.895-3.5,2-3.5C10.067,14.493,8.5,16.06,8.5,17.993z" id="XMLID_1558_" style="opacity:0.2;fill:#FFFFFF;enable-background:new    ;"/><path d="M12,14.493c1.105,0,2,1.567,2,3.5v4.5h1.5v-4.5   C15.5,16.06,13.933,14.493,12,14.493z" id="XMLID_1559_" style="opacity:0.1;enable-background:new    ;"/><g id="XMLID_1310_"><path d="M22.9,10.193l-3-4c-0.087-0.116-0.221-0.188-0.365-0.199    c-0.14-0.012-0.286,0.042-0.389,0.145L16,9.286v-2.32c0-0.413-0.125-0.809-0.362-1.146l-3.229-4.613    c-0.186-0.268-0.633-0.268-0.818,0L8.362,5.819C8.125,6.157,8,6.553,8,6.966v2.32L4.854,6.14C4.752,6.037,4.611,5.984,4.465,5.995    C4.32,6.005,4.187,6.078,4.1,6.194l-3,4c-0.09,0.12-0.121,0.275-0.085,0.421l3,12c0.056,0.223,0.256,0.379,0.485,0.379h15    c0.229,0,0.43-0.156,0.485-0.379l3-12C23.021,10.468,22.99,10.313,22.9,10.193z M15,17.993v4h-2.5v-6.949    C13.916,15.283,15,16.51,15,17.993z M11.5,21.993H9v-4c0-1.483,1.084-2.71,2.5-2.949V21.993z M19.109,21.993H16v-4    c0-2.206-1.794-4-4-4s-4,1.794-4,4v4H4.891L2.043,10.602l2.511-3.348l3.593,3.592c0.144,0.143,0.36,0.188,0.545,0.108    c0.187-0.077,0.309-0.26,0.309-0.462V6.965c0-0.206,0.063-0.404,0.181-0.573l2.819-4.027l2.819,4.028    c0.118,0.168,0.181,0.367,0.181,0.573v3.527c0,0.202,0.122,0.385,0.309,0.462c0.185,0.079,0.401,0.035,0.545-0.108l3.593-3.592    l2.511,3.348L19.109,21.993z" id="XMLID_1864_" style="fill:#303C42;"/><path d="M12,5.993c-0.827,0-1.5,0.673-1.5,1.5v2c0,0.276,0.224,0.5,0.5,0.5h2    c0.276,0,0.5-0.224,0.5-0.5v-2C13.5,6.666,12.827,5.993,12,5.993z M12.5,8.993h-1v-1.5c0-0.276,0.225-0.5,0.5-0.5    s0.5,0.224,0.5,0.5V8.993z" id="XMLID_1880_" style="fill:#303C42;"/><path d="M5.5,10.993c-0.827,0-1.5,0.673-1.5,1.5c0,0.041,0.005,0.082,0.015,0.121l0.5,2    C4.57,14.837,4.771,14.993,5,14.993h1.5c0.276,0,0.5-0.224,0.5-0.5v-2C7,11.666,6.327,10.993,5.5,10.993z M6,13.993H5.391    l-0.388-1.551c0.025-0.251,0.238-0.449,0.497-0.449c0.275,0,0.5,0.224,0.5,0.5V13.993z" id="XMLID_1883_" style="fill:#303C42;"/><path d="M17,12.493v2c0,0.276,0.224,0.5,0.5,0.5H19c0.229,0,0.43-0.156,0.485-0.379l0.5-2    c0.01-0.04,0.015-0.08,0.015-0.121c0-0.827-0.673-1.5-1.5-1.5S17,11.666,17,12.493z M18.997,12.442l-0.388,1.551H18v-1.5    c0-0.276,0.225-0.5,0.5-0.5C18.759,11.993,18.972,12.19,18.997,12.442z" id="XMLID_1886_" style="fill:#303C42;"/></g><linearGradient gradientUnits="userSpaceOnUse" id="XMLID_2_" x1="1.6766" x2="21.9643" y1="8.9324" y2="18.3927"><stop offset="0" style="stop-color:#FFFFFF;stop-opacity:0.2"/><stop offset="1" style="stop-color:#FFFFFF;stop-opacity:0"/></linearGradient><path d="M22.9,10.193l-3-4c-0.087-0.116-0.221-0.188-0.365-0.199   c-0.14-0.012-0.286,0.042-0.389,0.145L16,9.286v-2.32c0-0.413-0.125-0.809-0.362-1.146l-3.229-4.613   c-0.186-0.268-0.633-0.268-0.818,0L8.362,5.819C8.125,6.157,8,6.553,8,6.966v2.32L4.854,6.14C4.752,6.037,4.611,5.984,4.465,5.995   C4.32,6.005,4.187,6.078,4.1,6.194l-3,4c-0.09,0.12-0.121,0.275-0.085,0.421l3,12c0.056,0.223,0.256,0.379,0.485,0.379h15   c0.229,0,0.43-0.156,0.485-0.379l3-12C23.021,10.468,22.99,10.313,22.9,10.193z" id="XMLID_1563_" style="fill:url(#XMLID_2_);"/></g></svg>