<?xml version="1.0" ?><svg viewBox="0 0 64 64" xmlns="http://www.w3.org/2000/svg"><g data-name="30-Poison" id="_30-Poison"><circle cx="35" cy="43" r="4" style="fill:#ff7045"/><path d="M27.22,34.22A9.9,9.9,0,0,1,32,33a10,10,0,0,1,9.97,9.22c.02.25.03.52.03.78a10,10,0,1,1-14.78-8.78ZM31,43a4,4,0,1,0,4-4A4,4,0,0,0,31,43Z" style="fill:#e9edf5"/><path d="M35,39a3.977,3.977,0,0,1,1,.141,3.982,3.982,0,0,0,0,7.718A3.994,3.994,0,1,1,35,39Z" style="fill:#f05e3a"/><rect height="2" style="fill:#00a0aa" width="2" x="34" y="42"/><path d="M26.131,41.455a9.911,9.911,0,0,1,2.127-4.782l-1.915-1.916A10.145,10.145,0,0,0,24.86,36a9.939,9.939,0,0,0-2.81,6h3.536Z" style="fill:#cdd2e1"/><path d="M26.216,45H25V44H22.06a9.968,9.968,0,0,0,3.083,6.276l2.6-1.648A9.925,9.925,0,0,1,26.216,45Z" style="fill:#cdd2e1"/><path d="M34.022,52.8a9.727,9.727,0,0,1-4.978-2.622L26.907,51.6a9.98,9.98,0,0,0,7.115,1.2Z" style="fill:#cdd2e1"/><path d="M30,48V46H28v2.465l-.258.163-2.6,1.648A9.255,9.255,0,0,0,26.907,51.6l2.137-1.424L29.3,50H32V48Z" style="fill:#ffa480"/><path d="M27.293,40.293l-1.162,1.162L25.586,42H22.05a9.119,9.119,0,0,0,.01,2H25v1h2V43.414l1.707-1.707Z" style="fill:#ffa480"/><path d="M30.414,36l-.727-.727-1.508-1.509a10,10,0,0,0-1.836.993l1.915,1.916.525.524-.678,1.356,1.79.894L30.618,38H32V36Z" style="fill:#ffa480"/><path d="M39,7a2.015,2.015,0,0,1,2,2,2.006,2.006,0,0,1-2,2H25a2.015,2.015,0,0,1-2-2,2.006,2.006,0,0,1,2-2H39Z" style="fill:#b674f2"/><path d="M39,9H25a1.987,1.987,0,0,1-1.721-1A2,2,0,0,0,25,11H39a2.006,2.006,0,0,0,2-2,1.963,1.963,0,0,0-.279-1A2,2,0,0,1,39,9Z" style="fill:#a260e5"/><polygon points="36.57 11 36 15 28 15 27.43 11 36.57 11" style="fill:#ffa426"/><polygon points="36.285 13 36.57 11 27.43 11 27.715 13 36.285 13" style="fill:#ff873c"/><polygon points="38 1 37.14 7 26.86 7 26 1 38 1" style="fill:#ffa426"/><polygon points="29.36 4.5 28.858 1 26 1 26.86 7 37.14 7 37.498 4.5 29.36 4.5" style="fill:#ff873c"/><path d="M47,36l3,14.54C50,54.77,47.77,59,43.76,59H20.24C16.23,59,14,54.77,14,50.54L17,36h7.86a10,10,0,1,0,14.28,0Z" style="fill:#ffa426"/><path d="M22,46a10,10,0,1,0,19.876-1.5,9.987,9.987,0,0,1-19.752,0A10.069,10.069,0,0,0,22,46Z" style="fill:#ff873c"/><path d="M47,39l2.812,13.627A11.99,11.99,0,0,0,50,50.54L47,36H39.14a9.992,9.992,0,0,1,2.022,3Z" style="fill:#ff873c"/><path d="M17,39h5.838a9.992,9.992,0,0,1,2.022-3H17L14,50.54a11.99,11.99,0,0,0,.188,2.087Z" style="fill:#ff873c"/><path d="M28,15h8l.57-4H39V24a3,3,0,0,0,3,3c3.75,0,7.58,2.6,8.39,6.26L55,53c0,5-2.85,10-7.97,10H16.97C11.85,63,9,58,9,53l4.61-19.74C14.42,29.6,18.25,27,22,27a3,3,0,0,0,3-3V11h2.43ZM50,50.54,47,36H39.14a10,10,0,0,0-14.28,0H17L14,50.54C14,54.77,16.23,59,20.24,59H43.76C47.77,59,50,54.77,50,50.54Z" style="fill:#f5e1ff"/><path d="M50,54.54l-.29-1.405C48.992,56.342,46.937,59,43.76,59H20.24c-3.177,0-5.232-2.658-5.95-5.865L14,54.54C14,58.77,16.23,63,20.24,63H43.76C47.77,63,50,58.77,50,54.54Z" style="fill:#e0b8ff"/><path d="M39,28a3,3,0,0,0,3,3c3.75,0,7.58,2.6,8.39,6.26l4.318,18.491A13.1,13.1,0,0,0,55,53L50.39,33.26C49.58,29.6,45.75,27,42,27a3,3,0,0,1-3-3Z" style="fill:#e0b8ff"/><polygon points="28 19 36 19 36.57 15 39 15 39 11 36.57 11 36 15 28 15 27.43 11 25 11 25 15 27.43 15 28 19" style="fill:#e0b8ff"/><path d="M13.61,37.26C14.42,33.6,18.25,31,22,31a3,3,0,0,0,3-3V24a3,3,0,0,1-3,3c-3.75,0-7.58,2.6-8.39,6.26L9,53a13.1,13.1,0,0,0,.292,2.751Z" style="fill:#e0b8ff"/><rect height="2" style="fill:#ffda45" width="2" x="43" y="49"/><rect height="2" style="fill:#ffda45" width="2" x="40" y="54"/><rect height="2" style="fill:#ffda45" width="2" x="22" y="54"/><rect height="2" style="fill:#ffda45" width="2" x="19" y="49"/><rect height="7" style="fill:#b674f2" width="2" x="34" y="17"/><rect height="2" style="fill:#b674f2" width="2" x="34" y="26"/><path d="M22,27c-3.75,0-7.579,2.6-8.392,6.265L9,53c0,5,2.855,10,7.973,10H47.027C52.145,63,55,58,55,53L50.392,33.265C49.579,29.6,45.75,27,42,27h0a3,3,0,0,1-3-3V11H25V24a3,3,0,0,1-3,3Z" style="fill:none;stroke:#000;stroke-linejoin:round;stroke-width:2px"/><rect height="4" rx="2" style="fill:none;stroke:#000;stroke-linejoin:round;stroke-width:2px" width="18" x="23" y="7"/><polyline points="36.571 11 36 15 28 15 27.429 11" style="fill:none;stroke:#000;stroke-linejoin:round;stroke-width:2px"/><polyline points="26.857 6.999 26 1 38 1 37.143 6.999" style="fill:none;stroke:#000;stroke-linejoin:round;stroke-width:2px"/><path d="M25,36H17L14,50.538C14,54.769,16.234,59,20.24,59H43.76C47.766,59,50,54.769,50,50.538L47,36H39" style="fill:none;stroke:#000;stroke-linejoin:round;stroke-width:2px"/><circle cx="32" cy="43" r="10" style="fill:none;stroke:#000;stroke-linejoin:round;stroke-width:2px"/><circle cx="35" cy="43" r="4" style="fill:none;stroke:#000;stroke-linejoin:round;stroke-width:2px"/><line style="fill:none;stroke:#000;stroke-linejoin:round;stroke-width:2px" x1="36" x2="34" y1="43" y2="43"/><polyline points="26 51 29 49 29 46" style="fill:none;stroke:#000;stroke-linejoin:round;stroke-width:2px"/><line style="fill:none;stroke:#000;stroke-linejoin:round;stroke-width:2px" x1="29" x2="32" y1="49" y2="49"/><polyline points="22 43 26 43 28 41" style="fill:none;stroke:#000;stroke-linejoin:round;stroke-width:2px"/><line style="fill:none;stroke:#000;stroke-linejoin:round;stroke-width:2px" x1="26" x2="26" y1="43" y2="45"/><line style="fill:none;stroke:#000;stroke-linejoin:round;stroke-width:2px" x1="43" x2="45" y1="50" y2="50"/><line style="fill:none;stroke:#000;stroke-linejoin:round;stroke-width:2px" x1="40" x2="42" y1="55" y2="55"/><line style="fill:none;stroke:#000;stroke-linejoin:round;stroke-width:2px" x1="22" x2="24" y1="55" y2="55"/><line style="fill:none;stroke:#000;stroke-linejoin:round;stroke-width:2px" x1="19" x2="21" y1="50" y2="50"/><line style="fill:none;stroke:#000;stroke-linejoin:round;stroke-width:2px" x1="35" x2="35" y1="17" y2="24"/><line style="fill:none;stroke:#000;stroke-linejoin:round;stroke-width:2px" x1="34" x2="36" y1="27" y2="27"/></g></svg>