<?xml version="1.0" ?><svg id="Layer_1" style="enable-background:new 0 0 24 24;" version="1.1" viewBox="0 0 24 24" xml:space="preserve" xmlns="http://www.w3.org/2000/svg" xmlns:xlink="http://www.w3.org/1999/xlink"><g id="XMLID_1819_"><g id="XMLID_1750_"><polygon id="XMLID_1759_" points="13.253,10.502 5.566,10.502 3.178,16.502 15.749,16.502   " style="fill:#F99F38;"/><path d="M10.724,4.419c-0.513-1.233-2.25-1.22-2.744,0.021l-2.413,6.061h7.687    L10.724,4.419z" id="XMLID_1760_" style="fill:#F8F8F8;"/><path d="M15.749,16.502H3.178l-1.571,3.946c-0.391,0.983,0.326,2.054,1.376,2.054h13.03    c1.06,0,1.778-1.089,1.368-2.075L15.749,16.502z" id="XMLID_1762_" style="fill:#FFCF01;"/><path d="M5.059,20.448L8.644,4.44    C8.78,3.834,9.082,3.526,9.389,3.507C8.814,3.494,8.233,3.802,7.979,4.44L1.606,20.448c-0.391,0.983,0.326,2.054,1.376,2.054h2.85    C5.242,22.502,4.839,21.431,5.059,20.448z" id="XMLID_1753_" style="opacity:0.2;fill:#FFFFFF;enable-background:new    ;"/><path d="M17.381,20.427L10.724,4.419    c-0.233-0.56-0.719-0.849-1.226-0.897c0.285,0.048,0.559,0.337,0.69,0.897l3.745,16.008c0.231,0.986-0.173,2.075-0.769,2.075h2.85    C17.073,22.502,17.791,21.413,17.381,20.427z" id="XMLID_1754_" style="opacity:0.1;enable-background:new    ;"/></g><g id="XMLID_1752_"><polygon id="XMLID_1770_" points="14.469,13.426 22.149,15.913 21.624,9.436 14.311,7.067 12.656,9.064       " style="fill:#F99F38;"/><path d="M21.091,2.87c-0.108-1.331-1.765-1.854-2.617-0.825l-4.163,5.023l7.313,2.368    L21.091,2.87z" id="XMLID_1766_" style="fill:#F8F8F8;"/><path d="M22.149,15.913l-7.68-2.487l2.912,7.002c0.037,0.09,0.056,0.181,0.075,0.272    l3.096,1.003c1.008,0.327,2.027-0.488,1.94-1.552L22.149,15.913z" id="XMLID_1767_" style="fill:#FFCF01;"/><path d="M18.474,2.044l-5.819,7.02l1.002,2.409    l5.448-9.225c0.316-0.534,0.698-0.735,0.996-0.658C19.559,1.402,18.912,1.516,18.474,2.044z" id="XMLID_1771_" style="opacity:0.2;fill:#FFFFFF;enable-background:new    ;"/><path d="M22.493,20.15L21.092,2.87    c-0.049-0.604-0.423-1.03-0.89-1.231c0.256,0.133,0.428,0.493,0.38,1.066l-1.369,16.383c-0.084,1.009-0.804,1.92-1.371,1.737    l2.712,0.878C21.561,22.029,22.579,21.214,22.493,20.15z" id="XMLID_1763_" style="opacity:0.1;enable-background:new    ;"/></g><path d="M22.676,15.899c0-0.001,0-0.003,0-0.004l-0.483-6.477c0-0.001,0-0.001,0-0.002   l-0.49-6.574c-0.062-0.823-0.585-1.491-1.366-1.743c-0.781-0.251-1.596-0.015-2.127,0.616L12.814,8.14l-1.627-3.913   c-0.317-0.762-1.026-1.184-1.845-1.226c-0.821,0.006-1.52,0.487-1.825,1.253l-2.409,6.05c0,0.001-0.001,0.002-0.001,0.004   l-2.388,5.997c0,0.001,0,0.001-0.001,0.001l-1.575,3.955c-0.247,0.619-0.171,1.317,0.203,1.868C1.716,22.674,2.328,23,2.984,23   h13.03c0.662,0,1.278-0.33,1.646-0.883c0.152-0.228,0.24-0.482,0.289-0.743l2.438,0.807c0.203,0.067,0.413,0.1,0.621,0.1   c0.436,0,0.865-0.145,1.22-0.421c0.53-0.413,0.816-1.06,0.766-1.73L22.676,15.899z M18.975,2.359   c0.268-0.318,0.664-0.435,1.055-0.308c0.393,0.126,0.645,0.45,0.676,0.865L21.14,8.74l-5.867-1.974L18.975,2.359z M14.582,7.589   l6.639,2.234l0.403,5.403l-6.802-2.256l-1.107-2.661c0-0.001-0.001-0.001-0.001-0.002l-0.468-1.126L14.582,7.589z M5.905,11.002   h7.014l2.079,5H3.914L5.905,11.002z M8.444,4.626c0.154-0.387,0.492-0.621,0.904-0.624c0.003,0,0.006,0,0.008,0   c0.409,0,0.747,0.228,0.905,0.609l2.242,5.391h-6.2L8.444,4.626z M16.828,21.564c-0.186,0.278-0.483,0.438-0.815,0.438H2.983   c-0.329,0-0.625-0.158-0.811-0.432c-0.19-0.28-0.227-0.622-0.102-0.937l1.446-3.631h11.899l1.504,3.617   C17.051,20.936,17.018,21.28,16.828,21.564z M21.611,21.073c-0.264,0.207-0.595,0.265-0.911,0.16l-2.842-0.941   c-0.007-0.019-0.008-0.039-0.016-0.057l-1.633-3.928v-0.001l-0.88-2.115l6.375,2.114l0.291,3.899   C22.02,20.546,21.881,20.863,21.611,21.073z" id="XMLID_1429_" style="fill:#303C42;"/><linearGradient gradientUnits="userSpaceOnUse" id="XMLID_2_" x1="5.2324" x2="24.2618" y1="9.145" y2="18.0186"><stop offset="0" style="stop-color:#FFFFFF;stop-opacity:0.2"/><stop offset="1" style="stop-color:#FFFFFF;stop-opacity:0"/></linearGradient><path d="M22.676,15.899c0-0.001,0-0.003,0-0.004l-0.483-6.477   c0-0.001,0-0.001,0-0.002l-0.49-6.574c-0.062-0.823-0.585-1.491-1.366-1.743c-0.781-0.251-1.596-0.015-2.127,0.616L12.814,8.14   l-1.627-3.913c-0.317-0.762-1.026-1.184-1.845-1.226c-0.821,0.006-1.52,0.487-1.825,1.253l-2.409,6.05   c0,0.001-0.001,0.002-0.001,0.004l-2.388,5.997c0,0.001,0,0.001-0.001,0.001l-1.575,3.955c-0.247,0.619-0.171,1.317,0.203,1.868   C1.716,22.674,2.328,23,2.984,23h13.03c0.662,0,1.278-0.33,1.646-0.883c0.152-0.228,0.24-0.482,0.289-0.743l2.438,0.807   c0.203,0.067,0.413,0.1,0.621,0.1c0.436,0,0.865-0.145,1.22-0.421c0.53-0.413,0.816-1.06,0.766-1.73L22.676,15.899z" id="XMLID_1793_" style="fill:url(#XMLID_2_);"/></g></svg>