<?xml version="1.0" ?><svg id="Layer_1" style="enable-background:new 0 0 24 24;" version="1.1" viewBox="0 0 24 24" xml:space="preserve" xmlns="http://www.w3.org/2000/svg" xmlns:xlink="http://www.w3.org/1999/xlink"><g id="XMLID_1695_"><g id="XMLID_1362_"><path d="M14.5,4.499l0.784-2.351c0.129-0.387,0.492-0.649,0.9-0.649l0,0    c0.648,0,1.105,0.634,0.9,1.249L16.5,4.499" id="XMLID_1360_" style="fill:#9D581F;"/><path d="M18.868,6.499H19.5c0.552,0,1-0.448,1-1s-0.448-1-1-1h-15c-0.552,0-1,0.448-1,1    s0.448,1,1,1h0.587c-1.599,1.7-2.587,3.982-2.587,6.5c0,2.43,0.915,4.644,2.418,6.321c1.281,1.43,3.16,2.179,5.08,2.179h3.993    c2.036,0,3.999-0.864,5.306-2.426c1.369-1.637,2.196-3.74,2.204-6.04C21.509,10.535,20.499,8.223,18.868,6.499z" id="XMLID_1603_" style="fill:#67686B;"/><path d="M5,12.999c0-2.518,0.988-4.8,2.587-6.5H7    c-0.552,0-1-0.448-1-1s0.448-1,1-1H4.5c-0.552,0-1,0.448-1,1s0.448,1,1,1h0.587c-1.599,1.7-2.587,3.982-2.587,6.5    c0,2.43,0.915,4.644,2.418,6.321c1.281,1.43,3.16,2.179,5.08,2.179h2.5c-1.92,0-3.798-0.749-5.08-2.179    C5.915,17.643,5,15.429,5,12.999z" id="XMLID_1602_" style="opacity:0.2;fill:#FFFFFF;enable-background:new    ;"/><path d="M18.997,12.999c0-2.518-0.988-4.8-2.587-6.5h0.587    c0.552,0,1-0.448,1-1s-0.448-1-1-1h2.5c0.552,0,1,0.448,1,1s-0.448,1-1,1H18.91c1.599,1.7,2.587,3.982,2.587,6.5    c0,2.43-0.915,4.644-2.418,6.321c-1.281,1.43-3.16,2.179-5.08,2.179h-2.5c1.92,0,3.798-0.749,5.08-2.179    C18.082,17.643,18.997,15.429,18.997,12.999z" id="XMLID_1599_" style="opacity:0.1;enable-background:new    ;"/><g id="XMLID_1313_"><path d="M22.736,8.059c-0.161-0.087-0.358-0.077-0.513,0.025l-1.159,0.772     c-0.315-0.673-0.708-1.314-1.17-1.915C20.529,6.766,21,6.189,21,5.499c0-0.827-0.673-1.5-1.5-1.5h-2.306l0.365-1.093     c0.149-0.447,0.076-0.923-0.2-1.305c-0.275-0.382-0.704-0.602-1.175-0.602c-0.624,0-1.176,0.398-1.374,0.991l-0.67,2.009H4.5     c-0.827,0-1.5,0.673-1.5,1.5C3,6.177,3.456,6.745,4.075,6.93C3.619,7.527,3.232,8.167,2.922,8.84L1.775,8.083     C1.62,7.98,1.424,7.971,1.262,8.06C1.1,8.147,0.999,8.316,0.999,8.5v1c0,0.276,0.224,0.5,0.5,0.5s0.5-0.224,0.5-0.5V9.43     l0.543,0.359C2.192,10.814,1.999,11.894,1.999,13c0,2.459,0.904,4.822,2.545,6.654c0.657,0.734,1.473,1.311,2.386,1.711L6.293,22     H5.5C5.224,22,5,22.224,5,22.5S5.224,23,5.5,23h1c0.132,0,0.259-0.052,0.353-0.146l1.131-1.127C8.629,21.901,9.304,22,9.997,22     h3.994c0.687,0,1.356-0.1,1.997-0.273l1.163,1.132c0.093,0.091,0.218,0.142,0.349,0.142h1c0.276,0,0.5-0.224,0.5-0.5     s-0.224-0.5-0.5-0.5h-0.797l-0.658-0.64c1.013-0.445,1.917-1.108,2.634-1.965c1.488-1.78,2.312-4.039,2.32-6.359     c0.004-1.11-0.193-2.199-0.553-3.235L22,9.434V9.5c0,0.276,0.224,0.5,0.5,0.5S23,9.776,23,9.5v-1     C23,8.314,22.898,8.145,22.736,8.059z M15.758,2.307c0.108-0.322,0.591-0.396,0.79-0.121c0.085,0.118,0.108,0.266,0.062,0.404     L16.14,4h-0.946L15.758,2.307z M4.5,4.999h15c0.276,0,0.5,0.224,0.5,0.5s-0.224,0.5-0.5,0.5h-15c-0.276,0-0.5-0.224-0.5-0.5     S4.224,4.999,4.5,4.999z M18.912,18.753C17.718,20.181,15.925,21,13.991,21H9.997c-1.846,0-3.561-0.734-4.707-2.013     C3.813,17.339,3,15.212,3,12.999c0-2.221,0.825-4.341,2.317-6H18.64c1.528,1.686,2.368,3.817,2.36,6.032     C20.993,15.119,20.251,17.151,18.912,18.753z" id="XMLID_1363_" style="fill:#303C42;"/><circle cx="8" cy="1.999" id="XMLID_1366_" r="1" style="fill:#303C42;"/><circle cx="11" cy="2.999" id="XMLID_1367_" r="0.5" style="fill:#303C42;"/></g></g><linearGradient gradientUnits="userSpaceOnUse" id="XMLID_2_" x1="1.3943" x2="21.6275" y1="7.5436" y2="16.9785"><stop offset="0" style="stop-color:#FFFFFF;stop-opacity:0.2"/><stop offset="1" style="stop-color:#FFFFFF;stop-opacity:0"/></linearGradient><path d="M11,3.499c0.276,0,0.5-0.224,0.5-0.5s-0.224-0.5-0.5-0.5   s-0.5,0.224-0.5,0.5S10.724,3.499,11,3.499z M22.736,8.059c-0.161-0.087-0.358-0.077-0.513,0.025l-1.159,0.772   c-0.315-0.673-0.699-1.317-1.164-1.917c0.633-0.176,1.101-0.751,1.101-1.439c0-0.827-0.673-1.5-1.5-1.5h-2.306l0.365-1.093   c0.149-0.447,0.076-0.923-0.2-1.305C17.085,1.22,16.656,1,16.185,1c-0.624,0-1.176,0.398-1.374,0.991L14.141,4h-9.64   c-0.827,0-1.5,0.673-1.5,1.5c0,0.676,0.453,1.243,1.069,1.429C3.612,7.524,3.233,8.167,2.923,8.84L1.776,8.083   C1.621,7.98,1.425,7.971,1.263,8.06C1.101,8.147,1,8.316,1,8.5v1C1,9.776,1.224,10,1.5,10S2,9.776,2,9.5V9.43l0.543,0.359   C2.193,10.813,2,11.893,2,12.999c0,2.459,0.904,4.822,2.545,6.654c0.657,0.734,1.473,1.311,2.386,1.711l-0.637,0.635H5.501   c-0.276,0-0.5,0.224-0.5,0.5s0.224,0.5,0.5,0.5h1c0.132,0,0.259-0.052,0.353-0.146l1.131-1.127c0.645,0.174,1.32,0.273,2.013,0.273   h3.994c0.687,0,1.356-0.1,1.997-0.273l1.163,1.132C17.245,22.949,17.37,23,17.501,23h1c0.276,0,0.5-0.224,0.5-0.5   s-0.224-0.5-0.5-0.5h-0.797l-0.658-0.64c1.013-0.445,1.917-1.108,2.634-1.965c1.488-1.78,2.312-4.039,2.32-6.359   c0.004-1.11-0.193-2.199-0.553-3.235L22,9.433V9.5c0,0.276,0.224,0.5,0.5,0.5S23,9.776,23,9.5v-1   C23,8.314,22.898,8.145,22.736,8.059z M8,2.999c0.551,0,1-0.449,1-1s-0.449-1-1-1s-1,0.449-1,1S7.449,2.999,8,2.999z" id="XMLID_1611_" style="fill:url(#XMLID_2_);"/></g></svg>