<?xml version="1.0" ?><svg id="Layer_1" style="enable-background:new 0 0 24 24;" version="1.1" viewBox="0 0 24 24" xml:space="preserve" xmlns="http://www.w3.org/2000/svg" xmlns:xlink="http://www.w3.org/1999/xlink"><g id="XMLID_1816_"><path d="M19.5,9.248l1-0.748h-6.279c-0.549,0.61-1.336,1-2.221,1s-1.672-0.39-2.221-1H3.5   l1,0.751l-1,0.751l1,0.749l-1,0.748h4l-1,9l1.378-1l1.378,1l1.376-1l1.373,1l1.375-1l1.373,1l1.372-1l1.374,1l-1-9h4l-1-0.751   l1-0.751L19.5,9.248z" id="XMLID_1463_" style="fill:#9B4888;"/><polygon id="XMLID_1501_" points="5.5,10.003 6.5,9.251 5.5,8.5    3.5,8.5 4.5,9.251 3.5,10.003 4.5,10.752 3.5,11.5 5.5,11.5 6.5,10.752  " style="opacity:0.2;fill:#FFFFFF;enable-background:new    ;"/><path d="M7.89,11H7.5l-1,9.5l1.378-1l0.215,0.156   l0.791-7.552C8.946,11.514,8.483,11,7.89,11z" id="XMLID_1508_" style="opacity:0.2;fill:#FFFFFF;enable-background:new    ;"/><path d="M12,4.5c-0.781,0-1.504-0.036-2.144-0.094C9.328,4.947,9,5.685,9,6.5   c0,1.657,1.343,3,3,3s3-1.343,3-3c0-0.816-0.328-1.554-0.856-2.094C13.504,4.464,12.781,4.5,12,4.5z" id="XMLID_1482_" style="fill:#FBBE9D;"/><polygon id="XMLID_1495_" points="18.5,10.003 17.5,9.251 18.5,8.5 20.5,8.5    19.5,9.251 20.5,10.003 19.5,10.752 20.5,11.5 18.5,11.5 17.5,10.752  " style="opacity:0.1;enable-background:new    ;"/><path d="M10.716,4.465   C10.417,4.45,10.134,4.43,9.864,4.406C9.332,4.945,9,5.681,9,6.5c0,1.278,0.803,2.362,1.929,2.794   C10.664,8.573,10.5,7.588,10.5,6.5C10.5,5.753,10.582,5.063,10.716,4.465z" id="XMLID_1512_" style="opacity:0.2;fill:#FFFFFF;enable-background:new    ;"/><path d="M14.136,4.406c-0.269,0.024-0.553,0.044-0.852,0.059   C13.418,5.062,13.5,5.753,13.5,6.5c0,1.089-0.164,2.073-0.429,2.794C14.197,8.862,15,7.778,15,6.5   C15,5.682,14.668,4.945,14.136,4.406z" id="XMLID_1788_" style="opacity:0.1;enable-background:new    ;"/><path d="M9.5,2c0-0.828,0.672-1.5,1.5-1.5h2c0.828,0,1.5,0.672,1.5,1.5v1.127   c1.205,0.135,2,0.363,2,0.623c0,0.414-2.015,0.75-4.5,0.75S7.5,4.164,7.5,3.75c0-0.26,0.795-0.489,2-0.623V2z" id="XMLID_1477_" style="fill:#0DB14B;"/><path d="M16.5,3.75c0-0.26-0.795-0.489-2-0.623V2   c0-0.828-0.672-1.5-1.5-1.5v3.98C15.002,4.404,16.5,4.107,16.5,3.75z" id="XMLID_1804_" style="opacity:0.1;enable-background:new    ;"/><path d="M7.5,3.75c0-0.26,0.795-0.489,2-0.623V2   c0-0.828,0.672-1.5,1.5-1.5v3.98C8.998,4.404,7.5,4.107,7.5,3.75z" id="XMLID_1500_" style="opacity:0.2;fill:#FFFFFF;enable-background:new    ;"/><path d="M16.11,11h0.39l1,9.5l-1.378-1l-0.215,0.156   l-0.791-7.552C15.054,11.514,15.517,11,16.11,11z" id="XMLID_1494_" style="opacity:0.1;enable-background:new    ;"/><g id="XMLID_1359_"><path d="M20.332,10.749l0.469-0.352C20.926,10.302,21,10.154,21,9.997    s-0.074-0.305-0.2-0.4l-0.466-0.348L20.8,8.901c0.172-0.129,0.242-0.354,0.175-0.558c-0.068-0.205-0.26-0.342-0.475-0.342h-5.351    c0.219-0.456,0.351-0.961,0.351-1.5c0-0.6-0.166-1.173-0.451-1.686C16.173,4.641,17,4.321,17,3.751c0-0.547-0.586-0.866-2-1.064V2    c0-1.103-0.897-2-2-2h-2C9.897,0,9,0.897,9,2v0.686C7.586,2.885,7,3.203,7,3.75c0,0.57,0.828,0.89,1.951,1.064    C8.665,5.327,8.5,5.9,8.5,6.5c0,0.539,0.133,1.044,0.351,1.5H3.5C3.285,8,3.094,8.138,3.025,8.342    C2.958,8.546,3.027,8.771,3.199,8.9l0.469,0.352L3.199,9.604C3.074,9.699,3,9.847,3,10.004s0.074,0.305,0.2,0.4l0.466,0.348    L3.2,11.1c-0.172,0.129-0.242,0.354-0.175,0.558C3.093,11.863,3.285,12,3.5,12h3.441l-0.938,8.445    c-0.021,0.197,0.074,0.388,0.245,0.487C6.326,20.978,6.413,21,6.5,21c0.104,0,0.206-0.032,0.294-0.095l1.085-0.787l1.084,0.787    c0.176,0.127,0.412,0.127,0.588,0l1.082-0.786L11,20.386V23.5c0,0.276,0.224,0.5,0.5,0.5h1c0.276,0,0.5-0.224,0.5-0.5v-3.105    l0.381-0.277l1.08,0.786c0.176,0.128,0.413,0.127,0.589,0l1.076-0.785l1.08,0.786c0.16,0.117,0.373,0.127,0.545,0.028    s0.268-0.291,0.246-0.487L17.059,12H20.5c0.215,0,0.406-0.138,0.475-0.342c0.067-0.204-0.002-0.429-0.174-0.558L20.332,10.749z     M9.556,3.624C9.809,3.596,10,3.381,10,3.127V2c0-0.551,0.448-1,1-1h2c0.552,0,1,0.449,1,1v1.126c0,0.254,0.191,0.469,0.444,0.497    c0.356,0.04,0.64,0.083,0.862,0.126c-0.311,0.059-0.721,0.114-1.202,0.159c-0.002,0-0.004-0.001-0.006-0.001    c-1.348,0.122-2.85,0.122-4.197,0c-0.002,0-0.004,0.001-0.006,0.001C9.414,3.864,9.004,3.809,8.693,3.749    C8.916,3.707,9.199,3.663,9.556,3.624z M12,5c0.637,0,1.307-0.018,1.944-0.065C14.303,5.379,14.5,5.926,14.5,6.5    c0,0.641-0.25,1.221-0.648,1.664l-0.001,0.001c-0.973,1.077-2.729,1.077-3.701,0l-0.001-0.001C9.751,7.721,9.501,7.141,9.501,6.5    c0-0.574,0.196-1.121,0.556-1.565C10.693,4.982,11.363,5,12,5z M19.199,10.349C19.074,10.444,19,10.592,19,10.749    c0,0.089,0.024,0.176,0.067,0.251H16.5c-0.143,0-0.277,0.061-0.373,0.167c-0.095,0.106-0.14,0.248-0.124,0.389l0.875,7.874    l-0.458-0.333c-0.176-0.128-0.413-0.127-0.589,0l-1.076,0.785l-1.08-0.786c-0.176-0.128-0.412-0.128-0.588,0l-0.907,0.659    l-0.174,0.126l-0.211-0.154c-0.001-0.001-0.002,0-0.003-0.001l-0.865-0.63c-0.174-0.128-0.412-0.128-0.588,0l-1.082,0.786    l-1.084-0.787C8.085,19.032,7.983,19,7.879,19c-0.103,0-0.206,0.032-0.294,0.095l-0.463,0.336l0.875-7.876    c0.016-0.141-0.029-0.283-0.124-0.389c-0.096-0.106-0.23-0.167-0.373-0.167H4.935C4.977,10.924,5,10.839,5,10.751    c0-0.157-0.074-0.306-0.2-0.4l-0.467-0.349l0.468-0.351C4.926,9.556,5,9.408,5,9.251C5,9.162,4.976,9.075,4.933,9h4.626    c0.631,0.617,1.492,1,2.442,1s1.81-0.383,2.442-1h4.624c-0.042,0.075-0.065,0.16-0.065,0.248c0,0.157,0.074,0.306,0.2,0.4    l0.467,0.349L19.199,10.349z" id="XMLID_1457_" style="fill:#303C42;"/><path d="M10.555,13.754l0.159-0.478c0.087-0.262-0.055-0.545-0.316-0.632    c-0.267-0.087-0.546,0.055-0.633,0.317l-0.157,0.472l-0.003-0.001c-0.26-0.087-0.546,0.053-0.634,0.313    c-0.089,0.262,0.052,0.545,0.313,0.634l0.008,0.003l-0.315,0.949l-0.013-0.004C8.703,15.238,8.419,15.38,8.33,15.64    c-0.089,0.262,0.052,0.545,0.313,0.634l0.018,0.006L8.44,16.944c-0.087,0.262,0.055,0.545,0.316,0.632    c0.053,0.017,0.106,0.025,0.158,0.025c0.21,0,0.404-0.133,0.475-0.342l0.22-0.662c0.047,0.014,0.095,0.023,0.141,0.023    c0.209,0,0.403-0.131,0.474-0.34c0.087-0.257-0.048-0.533-0.301-0.627L10.24,14.7c0.05,0.016,0.102,0.025,0.151,0.025    c0.209,0,0.403-0.131,0.474-0.34C10.954,14.126,10.814,13.844,10.555,13.754z" id="XMLID_1905_" style="fill:#303C42;"/></g><linearGradient gradientUnits="userSpaceOnUse" id="XMLID_2_" x1="3.2984" x2="20.3014" y1="7.7484" y2="15.6769"><stop offset="0" style="stop-color:#FFFFFF;stop-opacity:0.2"/><stop offset="1" style="stop-color:#FFFFFF;stop-opacity:0"/></linearGradient><path d="M20.332,10.749l0.469-0.352C20.926,10.302,21,10.154,21,9.997   s-0.074-0.305-0.2-0.4l-0.466-0.348L20.8,8.901c0.172-0.129,0.242-0.354,0.175-0.558c-0.068-0.205-0.26-0.342-0.475-0.342h-5.351   c0.219-0.456,0.351-0.961,0.351-1.5c0-0.6-0.166-1.173-0.451-1.686C16.173,4.641,17,4.321,17,3.751c0-0.547-0.586-0.866-2-1.064V2   c0-1.103-0.897-2-2-2h-2C9.897,0,9,0.897,9,2v0.686C7.586,2.885,7,3.203,7,3.75c0,0.57,0.828,0.89,1.951,1.064   C8.665,5.327,8.5,5.9,8.5,6.5c0,0.539,0.133,1.044,0.351,1.5H3.5C3.285,8,3.094,8.138,3.025,8.342   C2.958,8.546,3.027,8.771,3.199,8.9l0.469,0.352L3.199,9.604C3.074,9.699,3,9.847,3,10.004s0.074,0.305,0.2,0.4l0.466,0.348   L3.2,11.1c-0.172,0.129-0.242,0.354-0.175,0.558C3.093,11.863,3.285,12,3.5,12h3.441l-0.938,8.445   c-0.021,0.197,0.074,0.388,0.245,0.487C6.326,20.978,6.413,21,6.5,21c0.104,0,0.206-0.032,0.294-0.095l1.085-0.787l1.084,0.787   c0.176,0.127,0.412,0.127,0.588,0l1.082-0.786L11,20.386V23.5c0,0.276,0.224,0.5,0.5,0.5h1c0.276,0,0.5-0.224,0.5-0.5v-3.105   l0.381-0.277l1.08,0.786c0.176,0.128,0.413,0.127,0.589,0l1.076-0.785l1.08,0.786c0.16,0.117,0.373,0.127,0.545,0.028   s0.268-0.291,0.246-0.487L17.059,12H20.5c0.215,0,0.406-0.138,0.475-0.342c0.067-0.204-0.002-0.429-0.174-0.558L20.332,10.749z" id="XMLID_1803_" style="fill:url(#XMLID_2_);"/></g></svg>