<?xml version="1.0" ?><svg enable-background="new 0 0 64 64" height="64px" version="1.1" viewBox="0 0 64 64" width="64px" xml:space="preserve" xmlns="http://www.w3.org/2000/svg" xmlns:xlink="http://www.w3.org/1999/xlink"><g id="Layer_23"><circle cx="32" cy="32" fill="#43408E" r="31.518"/></g><g id="Layer_25"><path d="M38.753,59.658c0,0.71-0.576,1.285-1.285,1.285s-1.285-0.575-1.285-1.285s0.576-1.285,1.285-1.285   S38.753,58.948,38.753,59.658z M37.467,51.298c-0.71,0-1.285,0.575-1.285,1.285c0,0.71,0.576,1.285,1.285,1.285   s1.285-0.575,1.285-1.285C38.753,51.873,38.177,51.298,37.467,51.298z M37.467,47.76c-0.71,0-1.285,0.575-1.285,1.285   c0,0.71,0.576,1.285,1.285,1.285s1.285-0.575,1.285-1.285C38.753,48.335,38.177,47.76,37.467,47.76z M37.467,54.835   c-0.71,0-1.285,0.575-1.285,1.285c0,0.71,0.576,1.285,1.285,1.285s1.285-0.575,1.285-1.285   C38.753,55.411,38.177,54.835,37.467,54.835z M36.182,3.055c0,0.71,0.576,1.285,1.285,1.285s1.285-0.575,1.285-1.285   c0-0.279-0.091-0.535-0.242-0.746c-0.576-0.126-1.158-0.236-1.746-0.329C36.414,2.21,36.182,2.605,36.182,3.055z M40.041,3.055   c0,0.71,0.576,1.285,1.285,1.285c0.559,0,1.03-0.359,1.207-0.857c-0.797-0.294-1.61-0.555-2.436-0.783   C40.064,2.814,40.041,2.931,40.041,3.055z M37.467,33.609c-0.71,0-1.285,0.575-1.285,1.285c0,0.71,0.576,1.285,1.285,1.285   s1.285-0.575,1.285-1.285C38.753,34.185,38.177,33.609,37.467,33.609z M41.327,5.308c-0.71,0-1.285,0.575-1.285,1.285   s0.576,1.285,1.285,1.285c0.71,0,1.285-0.575,1.285-1.285S42.036,5.308,41.327,5.308z M37.467,22.996   c-0.71,0-1.285,0.575-1.285,1.285c0,0.71,0.576,1.285,1.285,1.285s1.285-0.575,1.285-1.285   C38.753,23.572,38.177,22.996,37.467,22.996z M37.467,30.072c-0.71,0-1.285,0.575-1.285,1.285s0.576,1.285,1.285,1.285   s1.285-0.575,1.285-1.285S38.177,30.072,37.467,30.072z M37.467,40.685c-0.71,0-1.285,0.575-1.285,1.285s0.576,1.285,1.285,1.285   s1.285-0.575,1.285-1.285S38.177,40.685,37.467,40.685z M37.467,37.147c-0.71,0-1.285,0.575-1.285,1.285   c0,0.71,0.576,1.285,1.285,1.285s1.285-0.575,1.285-1.285C38.753,37.722,38.177,37.147,37.467,37.147z M37.467,44.222   c-0.71,0-1.285,0.575-1.285,1.285s0.576,1.285,1.285,1.285s1.285-0.575,1.285-1.285S38.177,44.222,37.467,44.222z M37.467,26.534   c-0.71,0-1.285,0.575-1.285,1.285c0,0.71,0.576,1.285,1.285,1.285s1.285-0.575,1.285-1.285   C38.753,27.109,38.177,26.534,37.467,26.534z M41.327,40.685c-0.71,0-1.285,0.575-1.285,1.285s0.576,1.285,1.285,1.285   c0.71,0,1.285-0.575,1.285-1.285S42.036,40.685,41.327,40.685z M41.327,44.222c-0.71,0-1.285,0.575-1.285,1.285   s0.576,1.285,1.285,1.285c0.71,0,1.285-0.575,1.285-1.285S42.036,44.222,41.327,44.222z M41.327,37.147   c-0.71,0-1.285,0.575-1.285,1.285c0,0.71,0.576,1.285,1.285,1.285c0.71,0,1.285-0.575,1.285-1.285   C42.612,37.722,42.036,37.147,41.327,37.147z M41.327,8.845c-0.71,0-1.285,0.575-1.285,1.285s0.576,1.285,1.285,1.285   c0.71,0,1.285-0.575,1.285-1.285S42.036,8.845,41.327,8.845z M41.327,51.298c-0.71,0-1.285,0.575-1.285,1.285   c0,0.71,0.576,1.285,1.285,1.285c0.71,0,1.285-0.575,1.285-1.285C42.612,51.873,42.036,51.298,41.327,51.298z M41.327,33.609   c-0.71,0-1.285,0.575-1.285,1.285c0,0.71,0.576,1.285,1.285,1.285c0.71,0,1.285-0.575,1.285-1.285   C42.612,34.185,42.036,33.609,41.327,33.609z M41.327,47.76c-0.71,0-1.285,0.575-1.285,1.285c0,0.71,0.576,1.285,1.285,1.285   c0.71,0,1.285-0.575,1.285-1.285C42.612,48.335,42.036,47.76,41.327,47.76z M41.327,54.835c-0.71,0-1.285,0.575-1.285,1.285   c0,0.71,0.576,1.285,1.285,1.285c0.71,0,1.285-0.575,1.285-1.285C42.612,55.411,42.036,54.835,41.327,54.835z M41.327,15.921   c-0.71,0-1.285,0.575-1.285,1.285c0,0.71,0.576,1.285,1.285,1.285c0.71,0,1.285-0.575,1.285-1.285   C42.612,16.496,42.036,15.921,41.327,15.921z M41.327,12.383c-0.71,0-1.285,0.575-1.285,1.285s0.576,1.285,1.285,1.285   c0.71,0,1.285-0.575,1.285-1.285S42.036,12.383,41.327,12.383z M41.327,19.458c-0.71,0-1.285,0.575-1.285,1.285   c0,0.71,0.576,1.285,1.285,1.285c0.71,0,1.285-0.575,1.285-1.285C42.612,20.034,42.036,19.458,41.327,19.458z M41.327,30.072   c-0.71,0-1.285,0.575-1.285,1.285s0.576,1.285,1.285,1.285c0.71,0,1.285-0.575,1.285-1.285S42.036,30.072,41.327,30.072z    M41.327,22.996c-0.71,0-1.285,0.575-1.285,1.285c0,0.71,0.576,1.285,1.285,1.285c0.71,0,1.285-0.575,1.285-1.285   C42.612,23.572,42.036,22.996,41.327,22.996z M41.327,26.534c-0.71,0-1.285,0.575-1.285,1.285c0,0.71,0.576,1.285,1.285,1.285   c0.71,0,1.285-0.575,1.285-1.285C42.612,27.109,42.036,26.534,41.327,26.534z M49.045,54.835c-0.71,0-1.285,0.575-1.285,1.285   c0,0.605,0.419,1.109,0.982,1.246c0.537-0.355,1.063-0.727,1.575-1.114c0.004-0.044,0.013-0.086,0.013-0.131   C50.331,55.411,49.755,54.835,49.045,54.835z M33.608,60.944c0.71,0,1.285-0.575,1.285-1.285s-0.576-1.285-1.285-1.285   c-0.71,0-1.285,0.575-1.285,1.285S32.898,60.944,33.608,60.944z M33.608,1.77c-0.71,0-1.285,0.575-1.285,1.285   s0.576,1.285,1.285,1.285c0.71,0,1.285-0.575,1.285-1.285S34.318,1.77,33.608,1.77z M33.608,8.845c-0.71,0-1.285,0.575-1.285,1.285   s0.576,1.285,1.285,1.285c0.71,0,1.285-0.575,1.285-1.285S34.318,8.845,33.608,8.845z M33.608,5.308   c-0.71,0-1.285,0.575-1.285,1.285s0.576,1.285,1.285,1.285c0.71,0,1.285-0.575,1.285-1.285S34.318,5.308,33.608,5.308z    M33.608,15.921c-0.71,0-1.285,0.575-1.285,1.285c0,0.71,0.576,1.285,1.285,1.285c0.71,0,1.285-0.575,1.285-1.285   C34.893,16.496,34.318,15.921,33.608,15.921z M37.467,19.458c-0.71,0-1.285,0.575-1.285,1.285c0,0.71,0.576,1.285,1.285,1.285   s1.285-0.575,1.285-1.285C38.753,20.034,38.177,19.458,37.467,19.458z M52.905,51.298c-0.71,0-1.285,0.575-1.285,1.285   c0,0.71,0.576,1.285,1.285,1.285c0.076,0,0.149-0.01,0.222-0.022c0.356-0.345,0.704-0.698,1.043-1.06   c0.011-0.067,0.021-0.134,0.021-0.204C54.19,51.873,53.614,51.298,52.905,51.298z M56.764,47.76c-0.71,0-1.285,0.575-1.285,1.285   c0,0.549,0.346,1.014,0.83,1.198c0.498-0.663,0.969-1.346,1.412-2.049C57.485,47.93,57.146,47.76,56.764,47.76z M33.608,19.458   c-0.71,0-1.285,0.575-1.285,1.285c0,0.71,0.576,1.285,1.285,1.285c0.71,0,1.285-0.575,1.285-1.285   C34.893,20.034,34.318,19.458,33.608,19.458z M42.612,59.658c0-0.71-0.576-1.285-1.285-1.285c-0.71,0-1.285,0.575-1.285,1.285   c0,0.7,0.561,1.267,1.257,1.283c0.275-0.088,0.547-0.18,0.819-0.276C42.416,60.43,42.612,60.069,42.612,59.658z M59.372,45.222   c0.078-0.161,0.153-0.323,0.228-0.485C59.493,44.88,59.413,45.043,59.372,45.222z M45.186,5.308c-0.71,0-1.285,0.575-1.285,1.285   s0.576,1.285,1.285,1.285c0.71,0,1.285-0.575,1.285-1.285S45.896,5.308,45.186,5.308z M45.186,58.373   c-0.71,0-1.285,0.575-1.285,1.285c0,0.103,0.015,0.202,0.038,0.298c0.77-0.329,1.524-0.691,2.26-1.08   C45.964,58.572,45.6,58.373,45.186,58.373z M33.608,12.383c-0.71,0-1.285,0.575-1.285,1.285s0.576,1.285,1.285,1.285   c0.71,0,1.285-0.575,1.285-1.285S34.318,12.383,33.608,12.383z M33.608,51.298c-0.71,0-1.285,0.575-1.285,1.285   c0,0.71,0.576,1.285,1.285,1.285c0.71,0,1.285-0.575,1.285-1.285C34.893,51.873,34.318,51.298,33.608,51.298z M33.608,22.996   c-0.71,0-1.285,0.575-1.285,1.285c0,0.71,0.576,1.285,1.285,1.285c0.71,0,1.285-0.575,1.285-1.285   C34.893,23.572,34.318,22.996,33.608,22.996z M33.608,47.76c-0.71,0-1.285,0.575-1.285,1.285c0,0.71,0.576,1.285,1.285,1.285   c0.71,0,1.285-0.575,1.285-1.285C34.893,48.335,34.318,47.76,33.608,47.76z M33.608,54.835c-0.71,0-1.285,0.575-1.285,1.285   c0,0.71,0.576,1.285,1.285,1.285c0.71,0,1.285-0.575,1.285-1.285C34.893,55.411,34.318,54.835,33.608,54.835z M37.467,12.383   c-0.71,0-1.285,0.575-1.285,1.285s0.576,1.285,1.285,1.285s1.285-0.575,1.285-1.285S38.177,12.383,37.467,12.383z M37.467,15.921   c-0.71,0-1.285,0.575-1.285,1.285c0,0.71,0.576,1.285,1.285,1.285s1.285-0.575,1.285-1.285   C38.753,16.496,38.177,15.921,37.467,15.921z M37.467,5.308c-0.71,0-1.285,0.575-1.285,1.285s0.576,1.285,1.285,1.285   s1.285-0.575,1.285-1.285S38.177,5.308,37.467,5.308z M33.608,30.072c-0.71,0-1.285,0.575-1.285,1.285s0.576,1.285,1.285,1.285   c0.71,0,1.285-0.575,1.285-1.285S34.318,30.072,33.608,30.072z M33.608,44.222c-0.71,0-1.285,0.575-1.285,1.285   s0.576,1.285,1.285,1.285c0.71,0,1.285-0.575,1.285-1.285S34.318,44.222,33.608,44.222z M33.608,26.534   c-0.71,0-1.285,0.575-1.285,1.285c0,0.71,0.576,1.285,1.285,1.285c0.71,0,1.285-0.575,1.285-1.285   C34.893,27.109,34.318,26.534,33.608,26.534z M33.608,33.609c-0.71,0-1.285,0.575-1.285,1.285c0,0.71,0.576,1.285,1.285,1.285   c0.71,0,1.285-0.575,1.285-1.285C34.893,34.185,34.318,33.609,33.608,33.609z M33.608,37.147c-0.71,0-1.285,0.575-1.285,1.285   c0,0.71,0.576,1.285,1.285,1.285c0.71,0,1.285-0.575,1.285-1.285C34.893,37.722,34.318,37.147,33.608,37.147z M33.608,40.685   c-0.71,0-1.285,0.575-1.285,1.285s0.576,1.285,1.285,1.285c0.71,0,1.285-0.575,1.285-1.285S34.318,40.685,33.608,40.685z    M56.764,26.534c-0.71,0-1.285,0.575-1.285,1.285c0,0.71,0.576,1.285,1.285,1.285c0.71,0,1.285-0.575,1.285-1.285   C58.049,27.109,57.474,26.534,56.764,26.534z M52.905,47.76c-0.71,0-1.285,0.575-1.285,1.285c0,0.71,0.576,1.285,1.285,1.285   c0.71,0,1.285-0.575,1.285-1.285C54.19,48.335,53.614,47.76,52.905,47.76z M52.905,40.685c-0.71,0-1.285,0.575-1.285,1.285   s0.576,1.285,1.285,1.285c0.71,0,1.285-0.575,1.285-1.285S53.614,40.685,52.905,40.685z M56.764,19.458   c-0.71,0-1.285,0.575-1.285,1.285c0,0.71,0.576,1.285,1.285,1.285c0.71,0,1.285-0.575,1.285-1.285   C58.049,20.034,57.474,19.458,56.764,19.458z M52.905,44.222c-0.71,0-1.285,0.575-1.285,1.285s0.576,1.285,1.285,1.285   c0.71,0,1.285-0.575,1.285-1.285S53.614,44.222,52.905,44.222z M56.764,15.921c-0.71,0-1.285,0.575-1.285,1.285   c0,0.71,0.576,1.285,1.285,1.285c0.71,0,1.285-0.575,1.285-1.285C58.049,16.496,57.474,15.921,56.764,15.921z M52.905,33.609   c-0.71,0-1.285,0.575-1.285,1.285c0,0.71,0.576,1.285,1.285,1.285c0.71,0,1.285-0.575,1.285-1.285   C54.19,34.185,53.614,33.609,52.905,33.609z M56.764,14.954c0.126,0,0.245-0.024,0.36-0.058c-0.453-0.664-0.932-1.308-1.434-1.932   c-0.133,0.202-0.212,0.444-0.212,0.704C55.479,14.378,56.054,14.954,56.764,14.954z M51.619,10.131c0,0.71,0.576,1.285,1.285,1.285   c0.405,0,0.762-0.191,0.998-0.484c-0.59-0.613-1.205-1.2-1.844-1.762C51.791,9.405,51.619,9.746,51.619,10.131z M52.905,15.921   c-0.71,0-1.285,0.575-1.285,1.285c0,0.71,0.576,1.285,1.285,1.285c0.71,0,1.285-0.575,1.285-1.285   C54.19,16.496,53.614,15.921,52.905,15.921z M52.905,19.458c-0.71,0-1.285,0.575-1.285,1.285c0,0.71,0.576,1.285,1.285,1.285   c0.71,0,1.285-0.575,1.285-1.285C54.19,20.034,53.614,19.458,52.905,19.458z M52.905,12.383c-0.71,0-1.285,0.575-1.285,1.285   s0.576,1.285,1.285,1.285c0.71,0,1.285-0.575,1.285-1.285S53.614,12.383,52.905,12.383z M52.905,26.534   c-0.71,0-1.285,0.575-1.285,1.285c0,0.71,0.576,1.285,1.285,1.285c0.71,0,1.285-0.575,1.285-1.285   C54.19,27.109,53.614,26.534,52.905,26.534z M52.905,30.072c-0.71,0-1.285,0.575-1.285,1.285s0.576,1.285,1.285,1.285   c0.71,0,1.285-0.575,1.285-1.285S53.614,30.072,52.905,30.072z M52.905,22.996c-0.71,0-1.285,0.575-1.285,1.285   c0,0.71,0.576,1.285,1.285,1.285c0.71,0,1.285-0.575,1.285-1.285C54.19,23.572,53.614,22.996,52.905,22.996z M52.905,37.147   c-0.71,0-1.285,0.575-1.285,1.285c0,0.71,0.576,1.285,1.285,1.285c0.71,0,1.285-0.575,1.285-1.285   C54.19,37.722,53.614,37.147,52.905,37.147z M60.623,22.996c-0.71,0-1.285,0.575-1.285,1.285c0,0.71,0.576,1.285,1.285,1.285   c0.396,0,0.746-0.183,0.982-0.465c-0.159-0.684-0.341-1.359-0.545-2.024C60.923,23.028,60.777,22.996,60.623,22.996z    M60.623,26.534c-0.71,0-1.285,0.575-1.285,1.285c0,0.71,0.576,1.285,1.285,1.285c0.71,0,1.285-0.575,1.285-1.285   C61.908,27.109,61.333,26.534,60.623,26.534z M59.338,20.744c0,0.71,0.576,1.285,1.285,1.285c0.031,0,0.06-0.007,0.09-0.009   c-0.268-0.772-0.567-1.53-0.894-2.272C59.528,19.984,59.338,20.34,59.338,20.744z M60.623,40.685c-0.71,0-1.285,0.575-1.285,1.285   c0,0.584,0.391,1.071,0.924,1.228c0.313-0.79,0.593-1.597,0.84-2.418C60.954,40.719,60.793,40.685,60.623,40.685z M60.623,30.072   c-0.71,0-1.285,0.575-1.285,1.285s0.576,1.285,1.285,1.285c0.71,0,1.285-0.575,1.285-1.285S61.333,30.072,60.623,30.072z    M60.623,33.609c-0.71,0-1.285,0.575-1.285,1.285c0,0.71,0.576,1.285,1.285,1.285c0.71,0,1.285-0.575,1.285-1.285   C61.908,34.185,61.333,33.609,60.623,33.609z M56.764,33.609c-0.71,0-1.285,0.575-1.285,1.285c0,0.71,0.576,1.285,1.285,1.285   c0.71,0,1.285-0.575,1.285-1.285C58.049,34.185,57.474,33.609,56.764,33.609z M56.764,30.072c-0.71,0-1.285,0.575-1.285,1.285   s0.576,1.285,1.285,1.285c0.71,0,1.285-0.575,1.285-1.285S57.474,30.072,56.764,30.072z M60.623,37.147   c-0.71,0-1.285,0.575-1.285,1.285c0,0.71,0.576,1.285,1.285,1.285c0.335,0,0.637-0.131,0.865-0.34   c0.118-0.475,0.226-0.954,0.322-1.437C61.617,37.474,61.158,37.147,60.623,37.147z M56.764,22.996c-0.71,0-1.285,0.575-1.285,1.285   c0,0.71,0.576,1.285,1.285,1.285c0.71,0,1.285-0.575,1.285-1.285C58.049,23.572,57.474,22.996,56.764,22.996z M56.764,40.685   c-0.71,0-1.285,0.575-1.285,1.285s0.576,1.285,1.285,1.285c0.71,0,1.285-0.575,1.285-1.285S57.474,40.685,56.764,40.685z    M56.764,37.147c-0.71,0-1.285,0.575-1.285,1.285c0,0.71,0.576,1.285,1.285,1.285c0.71,0,1.285-0.575,1.285-1.285   C58.049,37.722,57.474,37.147,56.764,37.147z M56.764,44.222c-0.71,0-1.285,0.575-1.285,1.285s0.576,1.285,1.285,1.285   c0.71,0,1.285-0.575,1.285-1.285S57.474,44.222,56.764,44.222z M45.186,19.458c-0.71,0-1.285,0.575-1.285,1.285   c0,0.71,0.576,1.285,1.285,1.285c0.71,0,1.285-0.575,1.285-1.285C46.471,20.034,45.896,19.458,45.186,19.458z M45.186,44.222   c-0.71,0-1.285,0.575-1.285,1.285s0.576,1.285,1.285,1.285c0.71,0,1.285-0.575,1.285-1.285S45.896,44.222,45.186,44.222z    M45.186,33.609c-0.71,0-1.285,0.575-1.285,1.285c0,0.71,0.576,1.285,1.285,1.285c0.71,0,1.285-0.575,1.285-1.285   C46.471,34.185,45.896,33.609,45.186,33.609z M45.186,37.147c-0.71,0-1.285,0.575-1.285,1.285c0,0.71,0.576,1.285,1.285,1.285   c0.71,0,1.285-0.575,1.285-1.285C46.471,37.722,45.896,37.147,45.186,37.147z M45.186,40.685c-0.71,0-1.285,0.575-1.285,1.285   s0.576,1.285,1.285,1.285c0.71,0,1.285-0.575,1.285-1.285S45.896,40.685,45.186,40.685z M45.186,47.76   c-0.71,0-1.285,0.575-1.285,1.285c0,0.71,0.576,1.285,1.285,1.285c0.71,0,1.285-0.575,1.285-1.285   C46.471,48.335,45.896,47.76,45.186,47.76z M45.186,54.835c-0.71,0-1.285,0.575-1.285,1.285c0,0.71,0.576,1.285,1.285,1.285   c0.71,0,1.285-0.575,1.285-1.285C46.471,55.411,45.896,54.835,45.186,54.835z M45.186,12.383c-0.71,0-1.285,0.575-1.285,1.285   s0.576,1.285,1.285,1.285c0.71,0,1.285-0.575,1.285-1.285S45.896,12.383,45.186,12.383z M45.186,15.921   c-0.71,0-1.285,0.575-1.285,1.285c0,0.71,0.576,1.285,1.285,1.285c0.71,0,1.285-0.575,1.285-1.285   C46.471,16.496,45.896,15.921,45.186,15.921z M45.186,8.845c-0.71,0-1.285,0.575-1.285,1.285s0.576,1.285,1.285,1.285   c0.71,0,1.285-0.575,1.285-1.285S45.896,8.845,45.186,8.845z M45.186,51.298c-0.71,0-1.285,0.575-1.285,1.285   c0,0.71,0.576,1.285,1.285,1.285c0.71,0,1.285-0.575,1.285-1.285C46.471,51.873,45.896,51.298,45.186,51.298z M45.186,22.996   c-0.71,0-1.285,0.575-1.285,1.285c0,0.71,0.576,1.285,1.285,1.285c0.71,0,1.285-0.575,1.285-1.285   C46.471,23.572,45.896,22.996,45.186,22.996z M45.186,30.072c-0.71,0-1.285,0.575-1.285,1.285s0.576,1.285,1.285,1.285   c0.71,0,1.285-0.575,1.285-1.285S45.896,30.072,45.186,30.072z M45.186,26.534c-0.71,0-1.285,0.575-1.285,1.285   c0,0.71,0.576,1.285,1.285,1.285c0.71,0,1.285-0.575,1.285-1.285C46.471,27.109,45.896,26.534,45.186,26.534z M49.045,26.534   c-0.71,0-1.285,0.575-1.285,1.285c0,0.71,0.576,1.285,1.285,1.285c0.71,0,1.285-0.575,1.285-1.285   C50.331,27.109,49.755,26.534,49.045,26.534z M49.045,37.147c-0.71,0-1.285,0.575-1.285,1.285c0,0.71,0.576,1.285,1.285,1.285   c0.71,0,1.285-0.575,1.285-1.285C50.331,37.722,49.755,37.147,49.045,37.147z M49.045,33.609c-0.71,0-1.285,0.575-1.285,1.285   c0,0.71,0.576,1.285,1.285,1.285c0.71,0,1.285-0.575,1.285-1.285C50.331,34.185,49.755,33.609,49.045,33.609z M49.045,30.072   c-0.71,0-1.285,0.575-1.285,1.285s0.576,1.285,1.285,1.285c0.71,0,1.285-0.575,1.285-1.285S49.755,30.072,49.045,30.072z    M49.045,40.685c-0.71,0-1.285,0.575-1.285,1.285s0.576,1.285,1.285,1.285c0.71,0,1.285-0.575,1.285-1.285   S49.755,40.685,49.045,40.685z M49.045,44.222c-0.71,0-1.285,0.575-1.285,1.285s0.576,1.285,1.285,1.285   c0.71,0,1.285-0.575,1.285-1.285S49.755,44.222,49.045,44.222z M49.045,7.878c0.362,0,0.688-0.151,0.921-0.391   c-0.678-0.498-1.377-0.969-2.097-1.41c-0.07,0.158-0.11,0.332-0.11,0.516C47.76,7.303,48.335,7.878,49.045,7.878z M49.045,51.298   c-0.71,0-1.285,0.575-1.285,1.285c0,0.71,0.576,1.285,1.285,1.285c0.71,0,1.285-0.575,1.285-1.285   C50.331,51.873,49.755,51.298,49.045,51.298z M49.045,15.921c-0.71,0-1.285,0.575-1.285,1.285c0,0.71,0.576,1.285,1.285,1.285   c0.71,0,1.285-0.575,1.285-1.285C50.331,16.496,49.755,15.921,49.045,15.921z M49.045,12.383c-0.71,0-1.285,0.575-1.285,1.285   s0.576,1.285,1.285,1.285c0.71,0,1.285-0.575,1.285-1.285S49.755,12.383,49.045,12.383z M49.045,47.76   c-0.71,0-1.285,0.575-1.285,1.285c0,0.71,0.576,1.285,1.285,1.285c0.71,0,1.285-0.575,1.285-1.285   C50.331,48.335,49.755,47.76,49.045,47.76z M49.045,8.845c-0.71,0-1.285,0.575-1.285,1.285s0.576,1.285,1.285,1.285   c0.71,0,1.285-0.575,1.285-1.285S49.755,8.845,49.045,8.845z M49.045,19.458c-0.71,0-1.285,0.575-1.285,1.285   c0,0.71,0.576,1.285,1.285,1.285c0.71,0,1.285-0.575,1.285-1.285C50.331,20.034,49.755,19.458,49.045,19.458z M49.045,22.996   c-0.71,0-1.285,0.575-1.285,1.285c0,0.71,0.576,1.285,1.285,1.285c0.71,0,1.285-0.575,1.285-1.285   C50.331,23.572,49.755,22.996,49.045,22.996z M37.467,8.845c-0.71,0-1.285,0.575-1.285,1.285s0.576,1.285,1.285,1.285   s1.285-0.575,1.285-1.285S38.177,8.845,37.467,8.845z M6.593,44.222c-0.71,0-1.285,0.575-1.285,1.285s0.576,1.285,1.285,1.285   s1.285-0.575,1.285-1.285S7.303,44.222,6.593,44.222z M10.452,15.921c-0.71,0-1.285,0.575-1.285,1.285   c0,0.71,0.576,1.285,1.285,1.285s1.285-0.575,1.285-1.285C11.738,16.496,11.162,15.921,10.452,15.921z M6.593,37.147   c-0.71,0-1.285,0.575-1.285,1.285c0,0.71,0.576,1.285,1.285,1.285s1.285-0.575,1.285-1.285C7.878,37.722,7.303,37.147,6.593,37.147   z M14.312,19.458c-0.71,0-1.285,0.575-1.285,1.285c0,0.71,0.576,1.285,1.285,1.285s1.285-0.575,1.285-1.285   C15.597,20.034,15.021,19.458,14.312,19.458z M10.452,12.383c-0.71,0-1.285,0.575-1.285,1.285s0.576,1.285,1.285,1.285   s1.285-0.575,1.285-1.285S11.162,12.383,10.452,12.383z M6.593,33.609c-0.71,0-1.285,0.575-1.285,1.285   c0,0.71,0.576,1.285,1.285,1.285s1.285-0.575,1.285-1.285C7.878,34.185,7.303,33.609,6.593,33.609z M7.878,13.668   c0-0.047-0.009-0.092-0.014-0.138c-0.349,0.456-0.687,0.921-1.01,1.396C7.439,14.806,7.878,14.289,7.878,13.668z M6.593,40.685   c-0.71,0-1.285,0.575-1.285,1.285s0.576,1.285,1.285,1.285s1.285-0.575,1.285-1.285S7.303,40.685,6.593,40.685z M6.593,19.458   c-0.71,0-1.285,0.575-1.285,1.285c0,0.71,0.576,1.285,1.285,1.285s1.285-0.575,1.285-1.285C7.878,20.034,7.303,19.458,6.593,19.458   z M4.019,20.744c0-0.153-0.031-0.297-0.08-0.433c-0.214,0.513-0.413,1.033-0.6,1.56C3.742,21.654,4.019,21.233,4.019,20.744z    M6.593,30.072c-0.71,0-1.285,0.575-1.285,1.285s0.576,1.285,1.285,1.285s1.285-0.575,1.285-1.285S7.303,30.072,6.593,30.072z    M2.734,25.567c0.71,0,1.285-0.575,1.285-1.285c0-0.633-0.459-1.156-1.061-1.263c-0.25,0.809-0.466,1.634-0.648,2.471   C2.443,25.536,2.584,25.567,2.734,25.567z M6.593,26.534c-0.71,0-1.285,0.575-1.285,1.285c0,0.71,0.576,1.285,1.285,1.285   s1.285-0.575,1.285-1.285C7.878,27.109,7.303,26.534,6.593,26.534z M6.593,22.996c-0.71,0-1.285,0.575-1.285,1.285   c0,0.71,0.576,1.285,1.285,1.285s1.285-0.575,1.285-1.285C7.878,23.572,7.303,22.996,6.593,22.996z M10.452,22.996   c-0.71,0-1.285,0.575-1.285,1.285c0,0.71,0.576,1.285,1.285,1.285s1.285-0.575,1.285-1.285   C11.738,23.572,11.162,22.996,10.452,22.996z M11.738,10.131c0-0.23-0.065-0.442-0.171-0.629c-0.61,0.554-1.195,1.134-1.758,1.735   c0.19,0.111,0.408,0.179,0.644,0.179C11.162,11.416,11.738,10.841,11.738,10.131z M14.312,8.845c-0.71,0-1.285,0.575-1.285,1.285   s0.576,1.285,1.285,1.285s1.285-0.575,1.285-1.285S15.021,8.845,14.312,8.845z M10.452,44.222c-0.71,0-1.285,0.575-1.285,1.285   s0.576,1.285,1.285,1.285s1.285-0.575,1.285-1.285S11.162,44.222,10.452,44.222z M10.452,19.458c-0.71,0-1.285,0.575-1.285,1.285   c0,0.71,0.576,1.285,1.285,1.285s1.285-0.575,1.285-1.285C11.738,20.034,11.162,19.458,10.452,19.458z M14.312,15.921   c-0.71,0-1.285,0.575-1.285,1.285c0,0.71,0.576,1.285,1.285,1.285s1.285-0.575,1.285-1.285   C15.597,16.496,15.021,15.921,14.312,15.921z M14.312,12.383c-0.71,0-1.285,0.575-1.285,1.285s0.576,1.285,1.285,1.285   s1.285-0.575,1.285-1.285S15.021,12.383,14.312,12.383z M10.452,47.76c-0.71,0-1.285,0.575-1.285,1.285   c0,0.71,0.576,1.285,1.285,1.285s1.285-0.575,1.285-1.285C11.738,48.335,11.162,47.76,10.452,47.76z M10.452,26.534   c-0.71,0-1.285,0.575-1.285,1.285c0,0.71,0.576,1.285,1.285,1.285s1.285-0.575,1.285-1.285   C11.738,27.109,11.162,26.534,10.452,26.534z M10.452,30.072c-0.71,0-1.285,0.575-1.285,1.285s0.576,1.285,1.285,1.285   s1.285-0.575,1.285-1.285S11.162,30.072,10.452,30.072z M10.452,40.685c-0.71,0-1.285,0.575-1.285,1.285s0.576,1.285,1.285,1.285   s1.285-0.575,1.285-1.285S11.162,40.685,10.452,40.685z M2.734,29.105c0.71,0,1.285-0.575,1.285-1.285   c0-0.71-0.576-1.285-1.285-1.285c-0.246,0-0.473,0.073-0.668,0.192c-0.113,0.646-0.205,1.299-0.276,1.958   C2.024,28.941,2.358,29.105,2.734,29.105z M10.452,37.147c-0.71,0-1.285,0.575-1.285,1.285c0,0.71,0.576,1.285,1.285,1.285   s1.285-0.575,1.285-1.285C11.738,37.722,11.162,37.147,10.452,37.147z M10.452,33.609c-0.71,0-1.285,0.575-1.285,1.285   c0,0.71,0.576,1.285,1.285,1.285s1.285-0.575,1.285-1.285C11.738,34.185,11.162,33.609,10.452,33.609z M6.593,18.491   c0.71,0,1.285-0.575,1.285-1.285c0-0.71-0.576-1.285-1.285-1.285c-0.154,0-0.299,0.031-0.436,0.081   c-0.288,0.464-0.565,0.936-0.828,1.417C5.431,18.027,5.956,18.491,6.593,18.491z M29.749,39.718c0.71,0,1.285-0.575,1.285-1.285   c0-0.71-0.576-1.285-1.285-1.285s-1.285,0.575-1.285,1.285C28.463,39.142,29.039,39.718,29.749,39.718z M29.749,25.567   c0.71,0,1.285-0.575,1.285-1.285c0-0.71-0.576-1.285-1.285-1.285s-1.285,0.575-1.285,1.285   C28.463,24.991,29.039,25.567,29.749,25.567z M29.749,43.255c0.71,0,1.285-0.575,1.285-1.285s-0.576-1.285-1.285-1.285   s-1.285,0.575-1.285,1.285S29.039,43.255,29.749,43.255z M29.749,29.105c0.71,0,1.285-0.575,1.285-1.285   c0-0.71-0.576-1.285-1.285-1.285s-1.285,0.575-1.285,1.285C28.463,28.529,29.039,29.105,29.749,29.105z M29.749,32.642   c0.71,0,1.285-0.575,1.285-1.285s-0.576-1.285-1.285-1.285s-1.285,0.575-1.285,1.285S29.039,32.642,29.749,32.642z M29.749,46.793   c0.71,0,1.285-0.575,1.285-1.285s-0.576-1.285-1.285-1.285s-1.285,0.575-1.285,1.285S29.039,46.793,29.749,46.793z M29.749,36.18   c0.71,0,1.285-0.575,1.285-1.285c0-0.71-0.576-1.285-1.285-1.285s-1.285,0.575-1.285,1.285   C28.463,35.604,29.039,36.18,29.749,36.18z M29.749,1.77c-0.71,0-1.285,0.575-1.285,1.285s0.576,1.285,1.285,1.285   s1.285-0.575,1.285-1.285S30.459,1.77,29.749,1.77z M29.749,50.331c0.71,0,1.285-0.575,1.285-1.285c0-0.71-0.576-1.285-1.285-1.285   s-1.285,0.575-1.285,1.285C28.463,49.755,29.039,50.331,29.749,50.331z M29.749,60.944c0.71,0,1.285-0.575,1.285-1.285   s-0.576-1.285-1.285-1.285s-1.285,0.575-1.285,1.285S29.039,60.944,29.749,60.944z M24.604,3.055c0,0.71,0.576,1.285,1.285,1.285   c0.71,0,1.285-0.575,1.285-1.285c0-0.399-0.185-0.751-0.471-0.986c-0.661,0.116-1.314,0.255-1.959,0.413   C24.658,2.655,24.604,2.848,24.604,3.055z M29.749,57.406c0.71,0,1.285-0.575,1.285-1.285c0-0.71-0.576-1.285-1.285-1.285   s-1.285,0.575-1.285,1.285C28.463,56.831,29.039,57.406,29.749,57.406z M29.749,53.868c0.71,0,1.285-0.575,1.285-1.285   c0-0.71-0.576-1.285-1.285-1.285s-1.285,0.575-1.285,1.285C28.463,53.293,29.039,53.868,29.749,53.868z M4.019,41.97   c0-0.662-0.502-1.201-1.145-1.271c0.222,0.745,0.472,1.478,0.748,2.197C3.866,42.662,4.019,42.335,4.019,41.97z M15.597,56.121   c0-0.71-0.576-1.285-1.285-1.285c-0.592,0-1.085,0.402-1.234,0.946c0.624,0.497,1.266,0.971,1.928,1.418   C15.36,56.971,15.597,56.575,15.597,56.121z M2.734,32.642c0.71,0,1.285-0.575,1.285-1.285s-0.576-1.285-1.285-1.285   c-0.466,0-0.871,0.251-1.096,0.622c-0.018,0.422-0.029,0.846-0.029,1.272C1.826,32.367,2.246,32.642,2.734,32.642z M11.738,52.583   c0-0.71-0.576-1.285-1.285-1.285c-0.556,0-1.025,0.355-1.204,0.849c0.507,0.572,1.035,1.125,1.584,1.658   C11.355,53.642,11.738,53.16,11.738,52.583z M7.878,49.045c0-0.71-0.576-1.285-1.285-1.285c-0.184,0-0.358,0.04-0.516,0.11   c0.441,0.719,0.912,1.418,1.41,2.097C7.728,49.733,7.878,49.407,7.878,49.045z M29.749,22.029c0.71,0,1.285-0.575,1.285-1.285   c0-0.71-0.576-1.285-1.285-1.285s-1.285,0.575-1.285,1.285C28.463,21.454,29.039,22.029,29.749,22.029z M2.734,36.18   c0.71,0,1.285-0.575,1.285-1.285c0-0.71-0.576-1.285-1.285-1.285c-0.434,0-0.816,0.217-1.049,0.546   c0.039,0.56,0.092,1.115,0.162,1.666C2.077,36.042,2.389,36.18,2.734,36.18z M4.019,38.432c0-0.71-0.576-1.285-1.285-1.285   c-0.242,0-0.465,0.071-0.659,0.187c0.142,0.801,0.316,1.591,0.519,2.37c0.046,0.005,0.092,0.014,0.14,0.014   C3.444,39.718,4.019,39.142,4.019,38.432z M29.749,14.954c0.71,0,1.285-0.575,1.285-1.285s-0.576-1.285-1.285-1.285   s-1.285,0.575-1.285,1.285S29.039,14.954,29.749,14.954z M29.749,7.878c0.71,0,1.285-0.575,1.285-1.285s-0.576-1.285-1.285-1.285   s-1.285,0.575-1.285,1.285S29.039,7.878,29.749,7.878z M29.749,18.491c0.71,0,1.285-0.575,1.285-1.285   c0-0.71-0.576-1.285-1.285-1.285s-1.285,0.575-1.285,1.285C28.463,17.916,29.039,18.491,29.749,18.491z M29.749,11.416   c0.71,0,1.285-0.575,1.285-1.285s-0.576-1.285-1.285-1.285s-1.285,0.575-1.285,1.285S29.039,11.416,29.749,11.416z M23.316,59.658   c0-0.71-0.576-1.285-1.285-1.285s-1.285,0.575-1.285,1.285c0,0.24,0.07,0.461,0.184,0.653c0.505,0.198,1.017,0.381,1.535,0.552   C22.959,60.685,23.316,60.216,23.316,59.658z M19.456,59.658c0-0.71-0.576-1.285-1.285-1.285c-0.299,0-0.571,0.106-0.789,0.277   c0.675,0.371,1.366,0.718,2.071,1.038C19.453,59.678,19.456,59.669,19.456,59.658z M22.03,19.458c-0.71,0-1.285,0.575-1.285,1.285   c0,0.71,0.576,1.285,1.285,1.285s1.285-0.575,1.285-1.285C23.316,20.034,22.74,19.458,22.03,19.458z M22.03,54.835   c-0.71,0-1.285,0.575-1.285,1.285c0,0.71,0.576,1.285,1.285,1.285s1.285-0.575,1.285-1.285   C23.316,55.411,22.74,54.835,22.03,54.835z M22.03,51.298c-0.71,0-1.285,0.575-1.285,1.285c0,0.71,0.576,1.285,1.285,1.285   s1.285-0.575,1.285-1.285C23.316,51.873,22.74,51.298,22.03,51.298z M22.03,47.76c-0.71,0-1.285,0.575-1.285,1.285   c0,0.71,0.576,1.285,1.285,1.285s1.285-0.575,1.285-1.285C23.316,48.335,22.74,47.76,22.03,47.76z M22.03,4.341   c0.71,0,1.285-0.575,1.285-1.285c0-0.062-0.01-0.121-0.018-0.181c-0.807,0.241-1.6,0.513-2.378,0.817   C21.142,4.078,21.553,4.341,22.03,4.341z M25.889,8.845c-0.71,0-1.285,0.575-1.285,1.285s0.576,1.285,1.285,1.285   c0.71,0,1.285-0.575,1.285-1.285S26.599,8.845,25.889,8.845z M25.889,5.308c-0.71,0-1.285,0.575-1.285,1.285   s0.576,1.285,1.285,1.285c0.71,0,1.285-0.575,1.285-1.285S26.599,5.308,25.889,5.308z M14.312,22.996   c-0.71,0-1.285,0.575-1.285,1.285c0,0.71,0.576,1.285,1.285,1.285s1.285-0.575,1.285-1.285   C15.597,23.572,15.021,22.996,14.312,22.996z M22.03,30.072c-0.71,0-1.285,0.575-1.285,1.285s0.576,1.285,1.285,1.285   s1.285-0.575,1.285-1.285S22.74,30.072,22.03,30.072z M22.03,26.534c-0.71,0-1.285,0.575-1.285,1.285   c0,0.71,0.576,1.285,1.285,1.285s1.285-0.575,1.285-1.285C23.316,27.109,22.74,26.534,22.03,26.534z M25.889,12.383   c-0.71,0-1.285,0.575-1.285,1.285s0.576,1.285,1.285,1.285c0.71,0,1.285-0.575,1.285-1.285S26.599,12.383,25.889,12.383z    M22.03,40.685c-0.71,0-1.285,0.575-1.285,1.285s0.576,1.285,1.285,1.285s1.285-0.575,1.285-1.285S22.74,40.685,22.03,40.685z    M22.03,22.996c-0.71,0-1.285,0.575-1.285,1.285c0,0.71,0.576,1.285,1.285,1.285s1.285-0.575,1.285-1.285   C23.316,23.572,22.74,22.996,22.03,22.996z M15.597,6.593c0-0.059-0.01-0.115-0.017-0.171c-0.639,0.411-1.261,0.846-1.866,1.302   c0.179,0.095,0.381,0.154,0.598,0.154C15.021,7.878,15.597,7.303,15.597,6.593z M22.03,33.609c-0.71,0-1.285,0.575-1.285,1.285   c0,0.71,0.576,1.285,1.285,1.285s1.285-0.575,1.285-1.285C23.316,34.185,22.74,33.609,22.03,33.609z M22.03,37.147   c-0.71,0-1.285,0.575-1.285,1.285c0,0.71,0.576,1.285,1.285,1.285s1.285-0.575,1.285-1.285   C23.316,37.722,22.74,37.147,22.03,37.147z M25.889,51.298c-0.71,0-1.285,0.575-1.285,1.285c0,0.71,0.576,1.285,1.285,1.285   c0.71,0,1.285-0.575,1.285-1.285C27.175,51.873,26.599,51.298,25.889,51.298z M25.889,47.76c-0.71,0-1.285,0.575-1.285,1.285   c0,0.71,0.576,1.285,1.285,1.285c0.71,0,1.285-0.575,1.285-1.285C27.175,48.335,26.599,47.76,25.889,47.76z M25.889,40.685   c-0.71,0-1.285,0.575-1.285,1.285s0.576,1.285,1.285,1.285c0.71,0,1.285-0.575,1.285-1.285S26.599,40.685,25.889,40.685z    M25.889,44.222c-0.71,0-1.285,0.575-1.285,1.285s0.576,1.285,1.285,1.285c0.71,0,1.285-0.575,1.285-1.285   S26.599,44.222,25.889,44.222z M25.889,15.921c-0.71,0-1.285,0.575-1.285,1.285c0,0.71,0.576,1.285,1.285,1.285   c0.71,0,1.285-0.575,1.285-1.285C27.175,16.496,26.599,15.921,25.889,15.921z M25.889,54.835c-0.71,0-1.285,0.575-1.285,1.285   c0,0.71,0.576,1.285,1.285,1.285c0.71,0,1.285-0.575,1.285-1.285C27.175,55.411,26.599,54.835,25.889,54.835z M25.889,58.373   c-0.71,0-1.285,0.575-1.285,1.285s0.576,1.285,1.285,1.285c0.71,0,1.285-0.575,1.285-1.285S26.599,58.373,25.889,58.373z    M25.889,22.996c-0.71,0-1.285,0.575-1.285,1.285c0,0.71,0.576,1.285,1.285,1.285c0.71,0,1.285-0.575,1.285-1.285   C27.175,23.572,26.599,22.996,25.889,22.996z M25.889,19.458c-0.71,0-1.285,0.575-1.285,1.285c0,0.71,0.576,1.285,1.285,1.285   c0.71,0,1.285-0.575,1.285-1.285C27.175,20.034,26.599,19.458,25.889,19.458z M25.889,26.534c-0.71,0-1.285,0.575-1.285,1.285   c0,0.71,0.576,1.285,1.285,1.285c0.71,0,1.285-0.575,1.285-1.285C27.175,27.109,26.599,26.534,25.889,26.534z M25.889,30.072   c-0.71,0-1.285,0.575-1.285,1.285s0.576,1.285,1.285,1.285c0.71,0,1.285-0.575,1.285-1.285S26.599,30.072,25.889,30.072z    M25.889,33.609c-0.71,0-1.285,0.575-1.285,1.285c0,0.71,0.576,1.285,1.285,1.285c0.71,0,1.285-0.575,1.285-1.285   C27.175,34.185,26.599,33.609,25.889,33.609z M25.889,37.147c-0.71,0-1.285,0.575-1.285,1.285c0,0.71,0.576,1.285,1.285,1.285   c0.71,0,1.285-0.575,1.285-1.285C27.175,37.722,26.599,37.147,25.889,37.147z M22.03,44.222c-0.71,0-1.285,0.575-1.285,1.285   s0.576,1.285,1.285,1.285s1.285-0.575,1.285-1.285S22.74,44.222,22.03,44.222z M18.171,8.845c-0.71,0-1.285,0.575-1.285,1.285   s0.576,1.285,1.285,1.285s1.285-0.575,1.285-1.285S18.881,8.845,18.171,8.845z M14.312,51.298c-0.71,0-1.285,0.575-1.285,1.285   c0,0.71,0.576,1.285,1.285,1.285s1.285-0.575,1.285-1.285C15.597,51.873,15.021,51.298,14.312,51.298z M14.312,47.76   c-0.71,0-1.285,0.575-1.285,1.285c0,0.71,0.576,1.285,1.285,1.285s1.285-0.575,1.285-1.285   C15.597,48.335,15.021,47.76,14.312,47.76z M18.171,5.308c-0.71,0-1.285,0.575-1.285,1.285s0.576,1.285,1.285,1.285   s1.285-0.575,1.285-1.285S18.881,5.308,18.171,5.308z M18.171,15.921c-0.71,0-1.285,0.575-1.285,1.285   c0,0.71,0.576,1.285,1.285,1.285s1.285-0.575,1.285-1.285C19.456,16.496,18.881,15.921,18.171,15.921z M18.171,19.458   c-0.71,0-1.285,0.575-1.285,1.285c0,0.71,0.576,1.285,1.285,1.285s1.285-0.575,1.285-1.285   C19.456,20.034,18.881,19.458,18.171,19.458z M18.171,12.383c-0.71,0-1.285,0.575-1.285,1.285s0.576,1.285,1.285,1.285   s1.285-0.575,1.285-1.285S18.881,12.383,18.171,12.383z M14.312,33.609c-0.71,0-1.285,0.575-1.285,1.285   c0,0.71,0.576,1.285,1.285,1.285s1.285-0.575,1.285-1.285C15.597,34.185,15.021,33.609,14.312,33.609z M14.312,30.072   c-0.71,0-1.285,0.575-1.285,1.285s0.576,1.285,1.285,1.285s1.285-0.575,1.285-1.285S15.021,30.072,14.312,30.072z M14.312,44.222   c-0.71,0-1.285,0.575-1.285,1.285s0.576,1.285,1.285,1.285s1.285-0.575,1.285-1.285S15.021,44.222,14.312,44.222z M14.312,26.534   c-0.71,0-1.285,0.575-1.285,1.285c0,0.71,0.576,1.285,1.285,1.285s1.285-0.575,1.285-1.285   C15.597,27.109,15.021,26.534,14.312,26.534z M14.312,37.147c-0.71,0-1.285,0.575-1.285,1.285c0,0.71,0.576,1.285,1.285,1.285   s1.285-0.575,1.285-1.285C15.597,37.722,15.021,37.147,14.312,37.147z M14.312,40.685c-0.71,0-1.285,0.575-1.285,1.285   s0.576,1.285,1.285,1.285s1.285-0.575,1.285-1.285S15.021,40.685,14.312,40.685z M18.171,37.147c-0.71,0-1.285,0.575-1.285,1.285   c0,0.71,0.576,1.285,1.285,1.285s1.285-0.575,1.285-1.285C19.456,37.722,18.881,37.147,18.171,37.147z M22.03,5.308   c-0.71,0-1.285,0.575-1.285,1.285s0.576,1.285,1.285,1.285s1.285-0.575,1.285-1.285S22.74,5.308,22.03,5.308z M18.171,51.298   c-0.71,0-1.285,0.575-1.285,1.285c0,0.71,0.576,1.285,1.285,1.285s1.285-0.575,1.285-1.285   C19.456,51.873,18.881,51.298,18.171,51.298z M18.171,54.835c-0.71,0-1.285,0.575-1.285,1.285c0,0.71,0.576,1.285,1.285,1.285   s1.285-0.575,1.285-1.285C19.456,55.411,18.881,54.835,18.171,54.835z M22.03,12.383c-0.71,0-1.285,0.575-1.285,1.285   s0.576,1.285,1.285,1.285s1.285-0.575,1.285-1.285S22.74,12.383,22.03,12.383z M18.171,47.76c-0.71,0-1.285,0.575-1.285,1.285   c0,0.71,0.576,1.285,1.285,1.285s1.285-0.575,1.285-1.285C19.456,48.335,18.881,47.76,18.171,47.76z M18.171,22.996   c-0.71,0-1.285,0.575-1.285,1.285c0,0.71,0.576,1.285,1.285,1.285s1.285-0.575,1.285-1.285   C19.456,23.572,18.881,22.996,18.171,22.996z M22.03,8.845c-0.71,0-1.285,0.575-1.285,1.285s0.576,1.285,1.285,1.285   s1.285-0.575,1.285-1.285S22.74,8.845,22.03,8.845z M18.171,30.072c-0.71,0-1.285,0.575-1.285,1.285s0.576,1.285,1.285,1.285   s1.285-0.575,1.285-1.285S18.881,30.072,18.171,30.072z M18.171,33.609c-0.71,0-1.285,0.575-1.285,1.285   c0,0.71,0.576,1.285,1.285,1.285s1.285-0.575,1.285-1.285C19.456,34.185,18.881,33.609,18.171,33.609z M18.171,26.534   c-0.71,0-1.285,0.575-1.285,1.285c0,0.71,0.576,1.285,1.285,1.285s1.285-0.575,1.285-1.285   C19.456,27.109,18.881,26.534,18.171,26.534z M18.171,40.685c-0.71,0-1.285,0.575-1.285,1.285s0.576,1.285,1.285,1.285   s1.285-0.575,1.285-1.285S18.881,40.685,18.171,40.685z M18.171,44.222c-0.71,0-1.285,0.575-1.285,1.285s0.576,1.285,1.285,1.285   s1.285-0.575,1.285-1.285S18.881,44.222,18.171,44.222z M22.03,15.921c-0.71,0-1.285,0.575-1.285,1.285   c0,0.71,0.576,1.285,1.285,1.285s1.285-0.575,1.285-1.285C23.316,16.496,22.74,15.921,22.03,15.921z" fill="#1268B3"/></g><g id="Layer_13"><path d="M21.149,49.134l-0.128-0.085C15.184,45.276,11.7,38.902,11.7,32c0-11.193,9.106-20.3,20.3-20.3   c3.884,0,7.675,1.121,10.964,3.241l18.487,11.073c0.399,1.969,0.602,3.981,0.602,5.985c0,13.202-8.812,25.01-21.457,28.791   L21.149,49.134z" fill="#2F2B75"/></g><g id="Layer_14"><path d="M14.312,26.534c-0.71,0-1.285,0.576-1.285,1.286s0.576,1.285,1.285,1.285s1.285-0.575,1.285-1.285   S15.021,26.534,14.312,26.534z M18.171,40.685c-0.71,0-1.285,0.575-1.285,1.285s0.576,1.286,1.285,1.286s1.285-0.576,1.285-1.286   S18.881,40.685,18.171,40.685z M41.327,51.298c-0.71,0-1.285,0.575-1.285,1.285s0.576,1.285,1.285,1.285s1.285-0.575,1.285-1.285   S42.036,51.298,41.327,51.298z M15.597,41.97c0-0.71-0.576-1.285-1.285-1.285c-0.21,0-0.401,0.062-0.576,0.152   c0.369,0.759,0.786,1.494,1.248,2.202C15.344,42.811,15.597,42.428,15.597,41.97z M14.312,37.147c-0.71,0-1.285,0.575-1.285,1.285   s0.576,1.286,1.285,1.286s1.285-0.576,1.285-1.286S15.021,37.147,14.312,37.147z M25.889,51.298c-0.272,0-0.51,0.104-0.718,0.248   l1.974,1.183c0.006-0.05,0.029-0.094,0.029-0.146C27.175,51.873,26.599,51.298,25.889,51.298z M19.456,45.508   c0-0.71-0.576-1.286-1.285-1.286s-1.285,0.576-1.285,1.286c0,0.003,0.002,0.006,0.002,0.01c0.394,0.438,0.805,0.861,1.238,1.266   c0.016,0,0.029,0.009,0.046,0.009C18.881,46.793,19.456,46.218,19.456,45.508z M23.315,49.045c0-0.71-0.575-1.286-1.285-1.286   c-0.651,0-1.168,0.493-1.252,1.121c0.082,0.055,0.16,0.114,0.243,0.168l0.128,0.085l1.592,0.954   C23.079,49.856,23.315,49.486,23.315,49.045z M18.171,26.534c-0.71,0-1.285,0.576-1.285,1.286s0.576,1.285,1.285,1.285   s1.285-0.575,1.285-1.285S18.881,26.534,18.171,26.534z M18.171,22.996c-0.71,0-1.285,0.576-1.285,1.286s0.576,1.285,1.285,1.285   s1.285-0.575,1.285-1.285S18.881,22.996,18.171,22.996z M18.171,30.072c-0.71,0-1.285,0.575-1.285,1.285   c0,0.71,0.576,1.285,1.285,1.285s1.285-0.575,1.285-1.285C19.456,30.647,18.881,30.072,18.171,30.072z M18.171,33.609   c-0.71,0-1.285,0.575-1.285,1.285s0.576,1.285,1.285,1.285s1.285-0.575,1.285-1.285S18.881,33.609,18.171,33.609z M18.171,19.458   c-0.71,0-1.285,0.575-1.285,1.285s0.576,1.286,1.285,1.286s1.285-0.576,1.285-1.286S18.881,19.458,18.171,19.458z M14.312,33.609   c-0.71,0-1.285,0.575-1.285,1.285s0.576,1.285,1.285,1.285s1.285-0.575,1.285-1.285S15.021,33.609,14.312,33.609z M14.312,25.567   c0.71,0,1.285-0.575,1.285-1.285s-0.576-1.286-1.285-1.286c-0.195,0-0.375,0.05-0.54,0.128c-0.243,0.497-0.469,1.003-0.672,1.521   C13.259,25.174,13.731,25.567,14.312,25.567z M15.597,20.744c0-0.182-0.04-0.354-0.108-0.51c-0.412,0.576-0.797,1.171-1.148,1.79   C15.036,22.006,15.597,21.443,15.597,20.744z M14.312,30.072c-0.71,0-1.285,0.575-1.285,1.285c0,0.71,0.576,1.285,1.285,1.285   s1.285-0.575,1.285-1.285C15.597,30.647,15.021,30.072,14.312,30.072z M36.182,13.668c0,0.71,0.576,1.285,1.285,1.285   s1.285-0.575,1.285-1.285c0-0.366-0.157-0.692-0.403-0.926c-0.351-0.117-0.704-0.226-1.061-0.323   C36.668,12.509,36.182,13.021,36.182,13.668z M37.467,51.298c-0.71,0-1.285,0.575-1.285,1.285s0.576,1.285,1.285,1.285   s1.285-0.575,1.285-1.285S38.177,51.298,37.467,51.298z M41.327,14.954c0.376,0,0.707-0.168,0.942-0.426   c-0.706-0.417-1.431-0.792-2.175-1.119c-0.018,0.086-0.052,0.167-0.052,0.259C40.041,14.378,40.617,14.954,41.327,14.954z    M41.327,15.921c-0.71,0-1.285,0.575-1.285,1.285s0.576,1.286,1.285,1.286s1.285-0.576,1.285-1.286S42.036,15.921,41.327,15.921z    M37.467,44.222c-0.71,0-1.285,0.576-1.285,1.286s0.576,1.285,1.285,1.285s1.285-0.575,1.285-1.285S38.177,44.222,37.467,44.222z    M41.327,19.458c-0.71,0-1.285,0.575-1.285,1.285s0.576,1.286,1.285,1.286s1.285-0.576,1.285-1.286S42.036,19.458,41.327,19.458z    M37.467,54.835c-0.71,0-1.285,0.575-1.285,1.285s0.576,1.286,1.285,1.286s1.285-0.576,1.285-1.286S38.177,54.835,37.467,54.835z    M37.467,47.76c-0.71,0-1.285,0.576-1.285,1.286s0.576,1.285,1.285,1.285s1.285-0.575,1.285-1.285S38.177,47.76,37.467,47.76z    M41.327,37.147c-0.71,0-1.285,0.575-1.285,1.285s0.576,1.286,1.285,1.286s1.285-0.576,1.285-1.286S42.036,37.147,41.327,37.147z    M41.327,40.685c-0.71,0-1.285,0.575-1.285,1.285s0.576,1.286,1.285,1.286s1.285-0.576,1.285-1.286S42.036,40.685,41.327,40.685z    M41.327,44.222c-0.71,0-1.285,0.576-1.285,1.286s0.576,1.285,1.285,1.285s1.285-0.575,1.285-1.285S42.036,44.222,41.327,44.222z    M41.327,47.76c-0.71,0-1.285,0.576-1.285,1.286s0.576,1.285,1.285,1.285s1.285-0.575,1.285-1.285S42.036,47.76,41.327,47.76z    M41.327,22.996c-0.71,0-1.285,0.576-1.285,1.286s0.576,1.285,1.285,1.285s1.285-0.575,1.285-1.285S42.036,22.996,41.327,22.996z    M41.327,54.835c-0.71,0-1.285,0.575-1.285,1.285s0.576,1.286,1.285,1.286s1.285-0.576,1.285-1.286S42.036,54.835,41.327,54.835z    M41.327,33.609c-0.71,0-1.285,0.575-1.285,1.285s0.576,1.285,1.285,1.285s1.285-0.575,1.285-1.285S42.036,33.609,41.327,33.609z    M41.327,26.534c-0.71,0-1.285,0.576-1.285,1.286s0.576,1.285,1.285,1.285s1.285-0.575,1.285-1.285S42.036,26.534,41.327,26.534z    M41.327,30.072c-0.71,0-1.285,0.575-1.285,1.285c0,0.71,0.576,1.285,1.285,1.285s1.285-0.575,1.285-1.285   C42.612,30.647,42.036,30.072,41.327,30.072z M22.03,30.072c-0.71,0-1.285,0.575-1.285,1.285c0,0.71,0.575,1.285,1.285,1.285   c0.71,0,1.285-0.575,1.285-1.285C23.315,30.647,22.74,30.072,22.03,30.072z M29.749,15.921c-0.71,0-1.285,0.575-1.285,1.285   s0.575,1.286,1.285,1.286c0.71,0,1.285-0.576,1.285-1.286S30.459,15.921,29.749,15.921z M25.889,14.954   c0.71,0,1.285-0.575,1.285-1.285c0-0.522-0.314-0.967-0.761-1.168c-0.554,0.159-1.094,0.345-1.628,0.549   c-0.105,0.187-0.181,0.39-0.181,0.62C24.604,14.378,25.18,14.954,25.889,14.954z M25.889,37.147c-0.71,0-1.285,0.575-1.285,1.285   s0.575,1.286,1.285,1.286c0.71,0,1.285-0.576,1.285-1.286S26.599,37.147,25.889,37.147z M29.749,19.458   c-0.71,0-1.285,0.575-1.285,1.285s0.575,1.286,1.285,1.286c0.71,0,1.285-0.576,1.285-1.286S30.459,19.458,29.749,19.458z    M29.749,12.383c-0.71,0-1.285,0.575-1.285,1.285s0.575,1.285,1.285,1.285c0.71,0,1.285-0.575,1.285-1.285   S30.459,12.383,29.749,12.383z M25.889,40.685c-0.71,0-1.285,0.575-1.285,1.285s0.575,1.286,1.285,1.286   c0.71,0,1.285-0.576,1.285-1.286S26.599,40.685,25.889,40.685z M25.889,47.76c-0.71,0-1.285,0.576-1.285,1.286   s0.575,1.285,1.285,1.285c0.71,0,1.285-0.575,1.285-1.285S26.599,47.76,25.889,47.76z M25.889,44.222   c-0.71,0-1.285,0.576-1.285,1.286s0.575,1.285,1.285,1.285c0.71,0,1.285-0.575,1.285-1.285S26.599,44.222,25.889,44.222z    M29.749,22.996c-0.71,0-1.285,0.576-1.285,1.286s0.575,1.285,1.285,1.285c0.71,0,1.285-0.575,1.285-1.285   S30.459,22.996,29.749,22.996z M29.749,44.222c-0.71,0-1.285,0.576-1.285,1.286s0.575,1.285,1.285,1.285   c0.71,0,1.285-0.575,1.285-1.285S30.459,44.222,29.749,44.222z M18.171,37.147c-0.71,0-1.285,0.575-1.285,1.285   s0.576,1.286,1.285,1.286s1.285-0.576,1.285-1.286S18.881,37.147,18.171,37.147z M29.749,40.685c-0.71,0-1.285,0.575-1.285,1.285   s0.575,1.286,1.285,1.286c0.71,0,1.285-0.576,1.285-1.286S30.459,40.685,29.749,40.685z M29.749,47.76   c-0.71,0-1.285,0.576-1.285,1.286s0.575,1.285,1.285,1.285c0.71,0,1.285-0.575,1.285-1.285S30.459,47.76,29.749,47.76z    M29.749,26.534c-0.71,0-1.285,0.576-1.285,1.286s0.575,1.285,1.285,1.285c0.71,0,1.285-0.575,1.285-1.285   S30.459,26.534,29.749,26.534z M29.749,37.147c-0.71,0-1.285,0.575-1.285,1.285s0.575,1.286,1.285,1.286   c0.71,0,1.285-0.576,1.285-1.286S30.459,37.147,29.749,37.147z M29.749,30.072c-0.71,0-1.285,0.575-1.285,1.285   c0,0.71,0.575,1.285,1.285,1.285c0.71,0,1.285-0.575,1.285-1.285C31.034,30.647,30.459,30.072,29.749,30.072z M29.749,33.609   c-0.71,0-1.285,0.575-1.285,1.285s0.575,1.285,1.285,1.285c0.71,0,1.285-0.575,1.285-1.285S30.459,33.609,29.749,33.609z    M29.749,51.298c-0.71,0-1.285,0.575-1.285,1.285s0.575,1.285,1.285,1.285c0.71,0,1.285-0.575,1.285-1.285   S30.459,51.298,29.749,51.298z M22.03,22.996c-0.71,0-1.285,0.576-1.285,1.286s0.575,1.285,1.285,1.285   c0.71,0,1.285-0.575,1.285-1.285S22.74,22.996,22.03,22.996z M22.03,26.534c-0.71,0-1.285,0.576-1.285,1.286   s0.575,1.285,1.285,1.285c0.71,0,1.285-0.575,1.285-1.285S22.74,26.534,22.03,26.534z M37.467,40.685   c-0.71,0-1.285,0.575-1.285,1.285s0.576,1.286,1.285,1.286s1.285-0.576,1.285-1.286S38.177,40.685,37.467,40.685z M22.03,19.458   c-0.71,0-1.285,0.575-1.285,1.285s0.575,1.286,1.285,1.286c0.71,0,1.285-0.576,1.285-1.286S22.74,19.458,22.03,19.458z    M23.313,13.68c-0.671,0.32-1.32,0.673-1.948,1.062c0.197,0.123,0.416,0.212,0.665,0.212C22.736,14.954,23.306,14.385,23.313,13.68   z M18.171,18.492c0.71,0,1.285-0.576,1.285-1.286c0-0.339-0.137-0.643-0.352-0.872c-0.659,0.543-1.27,1.141-1.855,1.762   C17.483,18.338,17.808,18.492,18.171,18.492z M22.03,15.921c-0.71,0-1.285,0.575-1.285,1.285s0.575,1.286,1.285,1.286   c0.71,0,1.285-0.576,1.285-1.286S22.74,15.921,22.03,15.921z M25.889,33.609c-0.71,0-1.285,0.575-1.285,1.285   s0.575,1.285,1.285,1.285c0.71,0,1.285-0.575,1.285-1.285S26.599,33.609,25.889,33.609z M22.03,33.609   c-0.71,0-1.285,0.575-1.285,1.285s0.575,1.285,1.285,1.285c0.71,0,1.285-0.575,1.285-1.285S22.74,33.609,22.03,33.609z    M25.889,22.996c-0.71,0-1.285,0.576-1.285,1.286s0.575,1.285,1.285,1.285c0.71,0,1.285-0.575,1.285-1.285   S26.599,22.996,25.889,22.996z M25.889,19.458c-0.71,0-1.285,0.575-1.285,1.285s0.575,1.286,1.285,1.286   c0.71,0,1.285-0.576,1.285-1.286S26.599,19.458,25.889,19.458z M25.889,26.534c-0.71,0-1.285,0.576-1.285,1.286   s0.575,1.285,1.285,1.285c0.71,0,1.285-0.575,1.285-1.285S26.599,26.534,25.889,26.534z M22.03,37.147   c-0.71,0-1.285,0.575-1.285,1.285s0.575,1.286,1.285,1.286c0.71,0,1.285-0.576,1.285-1.286S22.74,37.147,22.03,37.147z    M25.889,30.072c-0.71,0-1.285,0.575-1.285,1.285c0,0.71,0.575,1.285,1.285,1.285c0.71,0,1.285-0.575,1.285-1.285   C27.175,30.647,26.599,30.072,25.889,30.072z M25.889,15.921c-0.71,0-1.285,0.575-1.285,1.285s0.575,1.286,1.285,1.286   c0.71,0,1.285-0.576,1.285-1.286S26.599,15.921,25.889,15.921z M22.03,44.222c-0.71,0-1.285,0.576-1.285,1.286   s0.575,1.285,1.285,1.285c0.71,0,1.285-0.575,1.285-1.285S22.74,44.222,22.03,44.222z M22.03,40.685   c-0.71,0-1.285,0.575-1.285,1.285s0.575,1.286,1.285,1.286c0.71,0,1.285-0.576,1.285-1.286S22.74,40.685,22.03,40.685z    M33.608,40.685c-0.71,0-1.285,0.575-1.285,1.285s0.575,1.286,1.285,1.286c0.71,0,1.285-0.576,1.285-1.286   S34.318,40.685,33.608,40.685z M49.045,37.147c-0.71,0-1.285,0.575-1.285,1.285s0.575,1.286,1.285,1.286   c0.71,0,1.285-0.576,1.285-1.286S49.755,37.147,49.045,37.147z M49.045,26.534c-0.71,0-1.285,0.576-1.285,1.286   s0.575,1.285,1.285,1.285c0.71,0,1.285-0.575,1.285-1.285S49.755,26.534,49.045,26.534z M49.045,33.609   c-0.71,0-1.285,0.575-1.285,1.285s0.575,1.285,1.285,1.285c0.71,0,1.285-0.575,1.285-1.285S49.755,33.609,49.045,33.609z    M49.045,22.996c-0.71,0-1.285,0.576-1.285,1.286s0.575,1.285,1.285,1.285c0.71,0,1.285-0.575,1.285-1.285   S49.755,22.996,49.045,22.996z M49.045,30.072c-0.71,0-1.285,0.575-1.285,1.285c0,0.71,0.575,1.285,1.285,1.285   c0.71,0,1.285-0.575,1.285-1.285C50.331,30.647,49.755,30.072,49.045,30.072z M43.901,17.206c0,0.71,0.575,1.286,1.285,1.286   c0.71,0,1.285-0.576,1.285-1.286c0-0.066-0.028-0.123-0.038-0.186l-1.687-1.01C44.255,16.19,43.901,16.652,43.901,17.206z    M49.045,19.458c-0.71,0-1.285,0.575-1.285,1.285s0.575,1.286,1.285,1.286c0.71,0,1.285-0.576,1.285-1.286   S49.755,19.458,49.045,19.458z M49.045,47.76c-0.71,0-1.285,0.576-1.285,1.286s0.575,1.285,1.285,1.285   c0.71,0,1.285-0.575,1.285-1.285S49.755,47.76,49.045,47.76z M52.905,22.996c-0.71,0-1.285,0.576-1.285,1.286   s0.575,1.285,1.285,1.285c0.71,0,1.285-0.575,1.285-1.285S53.614,22.996,52.905,22.996z M52.905,26.534   c-0.71,0-1.285,0.576-1.285,1.286s0.575,1.285,1.285,1.285c0.71,0,1.285-0.575,1.285-1.285S53.614,26.534,52.905,26.534z    M52.905,30.072c-0.71,0-1.285,0.575-1.285,1.285c0,0.71,0.575,1.285,1.285,1.285c0.71,0,1.285-0.575,1.285-1.285   C54.19,30.647,53.614,30.072,52.905,30.072z M37.467,37.147c-0.71,0-1.285,0.575-1.285,1.285s0.576,1.286,1.285,1.286   s1.285-0.576,1.285-1.286S38.177,37.147,37.467,37.147z M49.045,44.222c-0.71,0-1.285,0.576-1.285,1.286s0.575,1.285,1.285,1.285   c0.71,0,1.285-0.575,1.285-1.285S49.755,44.222,49.045,44.222z M45.186,47.76c-0.71,0-1.285,0.576-1.285,1.286   s0.575,1.285,1.285,1.285c0.71,0,1.285-0.575,1.285-1.285S45.896,47.76,45.186,47.76z M49.045,40.685   c-0.71,0-1.285,0.575-1.285,1.285s0.575,1.286,1.285,1.286c0.71,0,1.285-0.576,1.285-1.286S49.755,40.685,49.045,40.685z    M49.045,51.298c-0.71,0-1.285,0.575-1.285,1.285s0.575,1.285,1.285,1.285c0.71,0,1.285-0.575,1.285-1.285   S49.755,51.298,49.045,51.298z M49.045,54.835c-0.71,0-1.285,0.575-1.285,1.285c0,0.441,0.226,0.825,0.565,1.055   c0.667-0.435,1.313-0.894,1.94-1.378C50.119,55.248,49.64,54.835,49.045,54.835z M52.905,33.609c-0.71,0-1.285,0.575-1.285,1.285   s0.575,1.285,1.285,1.285c0.71,0,1.285-0.575,1.285-1.285S53.614,33.609,52.905,33.609z M56.764,47.76   c-0.71,0-1.285,0.576-1.285,1.286c0,0.409,0.192,0.77,0.49,1.004c0.512-0.679,0.999-1.377,1.452-2.097   C57.228,47.834,57.007,47.76,56.764,47.76z M54.123,52.252c-0.149-0.545-0.626-0.954-1.219-0.954c-0.71,0-1.285,0.575-1.285,1.285   c0,0.603,0.424,1.085,0.983,1.225C53.129,53.308,53.634,52.787,54.123,52.252z M45.186,58.373c-0.671,0-1.205,0.52-1.263,1.176   c0.673-0.293,1.333-0.606,1.977-0.946C45.696,58.462,45.453,58.373,45.186,58.373z M60.623,37.147c-0.71,0-1.285,0.575-1.285,1.285   s0.576,1.286,1.285,1.286c0.147,0,0.284-0.035,0.415-0.081c0.186-0.696,0.341-1.402,0.476-2.114   C61.282,37.296,60.973,37.147,60.623,37.147z M60.623,33.609c-0.71,0-1.285,0.575-1.285,1.285s0.576,1.285,1.285,1.285   c0.652,0,1.169-0.493,1.253-1.123c0.007-0.067,0.019-0.133,0.025-0.201C61.879,34.165,61.319,33.609,60.623,33.609z M60.623,40.685   c-0.71,0-1.285,0.575-1.285,1.285c0,0.443,0.227,0.829,0.568,1.058c0.304-0.761,0.576-1.536,0.817-2.323   C60.689,40.702,60.658,40.685,60.623,40.685z M45.186,57.406c0.71,0,1.285-0.576,1.285-1.286s-0.575-1.285-1.285-1.285   c-0.71,0-1.285,0.575-1.285,1.285S44.476,57.406,45.186,57.406z M45.186,37.147c-0.71,0-1.285,0.575-1.285,1.285   s0.575,1.286,1.285,1.286c0.71,0,1.285-0.576,1.285-1.286S45.896,37.147,45.186,37.147z M45.186,33.609   c-0.71,0-1.285,0.575-1.285,1.285s0.575,1.285,1.285,1.285c0.71,0,1.285-0.575,1.285-1.285S45.896,33.609,45.186,33.609z    M45.186,51.298c-0.71,0-1.285,0.575-1.285,1.285s0.575,1.285,1.285,1.285c0.71,0,1.285-0.575,1.285-1.285   S45.896,51.298,45.186,51.298z M45.186,40.685c-0.71,0-1.285,0.575-1.285,1.285s0.575,1.286,1.285,1.286   c0.71,0,1.285-0.576,1.285-1.286S45.896,40.685,45.186,40.685z M45.186,44.222c-0.71,0-1.285,0.576-1.285,1.286   s0.575,1.285,1.285,1.285c0.71,0,1.285-0.575,1.285-1.285S45.896,44.222,45.186,44.222z M45.186,19.458   c-0.71,0-1.285,0.575-1.285,1.285s0.575,1.286,1.285,1.286c0.71,0,1.285-0.576,1.285-1.286S45.896,19.458,45.186,19.458z    M45.186,22.996c-0.71,0-1.285,0.576-1.285,1.286s0.575,1.285,1.285,1.285c0.71,0,1.285-0.575,1.285-1.285   S45.896,22.996,45.186,22.996z M45.186,26.534c-0.71,0-1.285,0.576-1.285,1.286s0.575,1.285,1.285,1.285   c0.71,0,1.285-0.575,1.285-1.285S45.896,26.534,45.186,26.534z M45.186,30.072c-0.71,0-1.285,0.575-1.285,1.285   c0,0.71,0.575,1.285,1.285,1.285c0.71,0,1.285-0.575,1.285-1.285C46.471,30.647,45.896,30.072,45.186,30.072z M52.905,22.029   c0.421,0,0.776-0.216,1.011-0.528l-2.168-1.298c-0.078,0.166-0.129,0.346-0.129,0.541C51.619,21.454,52.195,22.029,52.905,22.029z    M33.608,53.868c0.71,0,1.285-0.575,1.285-1.285s-0.575-1.285-1.285-1.285c-0.71,0-1.285,0.575-1.285,1.285   S32.898,53.868,33.608,53.868z M33.608,30.072c-0.71,0-1.285,0.575-1.285,1.285c0,0.71,0.575,1.285,1.285,1.285   c0.71,0,1.285-0.575,1.285-1.285C34.893,30.647,34.318,30.072,33.608,30.072z M33.608,33.609c-0.71,0-1.285,0.575-1.285,1.285   s0.575,1.285,1.285,1.285c0.71,0,1.285-0.575,1.285-1.285S34.318,33.609,33.608,33.609z M33.608,22.996   c-0.71,0-1.285,0.576-1.285,1.286s0.575,1.285,1.285,1.285c0.71,0,1.285-0.575,1.285-1.285S34.318,22.996,33.608,22.996z    M33.608,37.147c-0.71,0-1.285,0.575-1.285,1.285s0.575,1.286,1.285,1.286c0.71,0,1.285-0.576,1.285-1.286   S34.318,37.147,33.608,37.147z M33.608,12.383c-0.71,0-1.285,0.575-1.285,1.285s0.575,1.285,1.285,1.285   c0.71,0,1.285-0.575,1.285-1.285S34.318,12.383,33.608,12.383z M33.608,19.458c-0.71,0-1.285,0.575-1.285,1.285   s0.575,1.286,1.285,1.286c0.71,0,1.285-0.576,1.285-1.286S34.318,19.458,33.608,19.458z M33.608,15.921   c-0.71,0-1.285,0.575-1.285,1.285s0.575,1.286,1.285,1.286c0.71,0,1.285-0.576,1.285-1.286S34.318,15.921,33.608,15.921z    M33.608,26.534c-0.71,0-1.285,0.576-1.285,1.286s0.575,1.285,1.285,1.285c0.71,0,1.285-0.575,1.285-1.285   S34.318,26.534,33.608,26.534z M37.467,30.072c-0.71,0-1.285,0.575-1.285,1.285c0,0.71,0.576,1.285,1.285,1.285   s1.285-0.575,1.285-1.285C38.753,30.647,38.177,30.072,37.467,30.072z M37.467,22.996c-0.71,0-1.285,0.576-1.285,1.286   s0.576,1.285,1.285,1.285s1.285-0.575,1.285-1.285S38.177,22.996,37.467,22.996z M52.905,37.147c-0.71,0-1.285,0.575-1.285,1.285   s0.575,1.286,1.285,1.286c0.71,0,1.285-0.576,1.285-1.286S53.614,37.147,52.905,37.147z M37.467,33.609   c-0.71,0-1.285,0.575-1.285,1.285s0.576,1.285,1.285,1.285s1.285-0.575,1.285-1.285S38.177,33.609,37.467,33.609z M37.467,26.534   c-0.71,0-1.285,0.576-1.285,1.286s0.576,1.285,1.285,1.285s1.285-0.575,1.285-1.285S38.177,26.534,37.467,26.534z M33.608,44.222   c-0.71,0-1.285,0.576-1.285,1.286s0.575,1.285,1.285,1.285c0.71,0,1.285-0.575,1.285-1.285S34.318,44.222,33.608,44.222z    M37.467,15.921c-0.71,0-1.285,0.575-1.285,1.285s0.576,1.286,1.285,1.286s1.285-0.576,1.285-1.286S38.177,15.921,37.467,15.921z    M37.467,19.458c-0.71,0-1.285,0.575-1.285,1.285s0.576,1.286,1.285,1.286s1.285-0.576,1.285-1.286S38.177,19.458,37.467,19.458z    M33.608,47.76c-0.71,0-1.285,0.576-1.285,1.286s0.575,1.285,1.285,1.285c0.71,0,1.285-0.575,1.285-1.285   S34.318,47.76,33.608,47.76z M56.764,26.534c-0.71,0-1.285,0.576-1.285,1.286s0.575,1.285,1.285,1.285   c0.71,0,1.285-0.575,1.285-1.285S57.474,26.534,56.764,26.534z M56.764,44.222c-0.71,0-1.285,0.576-1.285,1.286   s0.575,1.285,1.285,1.285c0.71,0,1.285-0.575,1.285-1.285S57.474,44.222,56.764,44.222z M56.764,33.609   c-0.71,0-1.285,0.575-1.285,1.285s0.575,1.285,1.285,1.285c0.71,0,1.285-0.575,1.285-1.285S57.474,33.609,56.764,33.609z    M56.764,37.147c-0.71,0-1.285,0.575-1.285,1.285s0.575,1.286,1.285,1.286c0.71,0,1.285-0.576,1.285-1.286   S57.474,37.147,56.764,37.147z M56.764,30.072c-0.71,0-1.285,0.575-1.285,1.285c0,0.71,0.575,1.285,1.285,1.285   c0.71,0,1.285-0.575,1.285-1.285C58.049,30.647,57.474,30.072,56.764,30.072z M52.905,40.685c-0.71,0-1.285,0.575-1.285,1.285   s0.575,1.286,1.285,1.286c0.71,0,1.285-0.576,1.285-1.286S53.614,40.685,52.905,40.685z M34.893,56.121   c0-0.71-0.575-1.285-1.285-1.285c-0.619,0-1.111,0.446-1.233,1.028l2.05,1.229C34.705,56.856,34.893,56.516,34.893,56.121z    M52.905,47.76c-0.71,0-1.285,0.576-1.285,1.286s0.575,1.285,1.285,1.285c0.71,0,1.285-0.575,1.285-1.285   S53.614,47.76,52.905,47.76z M52.905,44.222c-0.71,0-1.285,0.576-1.285,1.286s0.575,1.285,1.285,1.285   c0.71,0,1.285-0.575,1.285-1.285S53.614,44.222,52.905,44.222z M42.512,60.13c0.06-0.147,0.1-0.304,0.1-0.472   c0-0.71-0.576-1.285-1.285-1.285s-1.285,0.575-1.285,1.285c0,0.477,0.271,0.876,0.656,1.098   C41.313,60.569,41.915,60.354,42.512,60.13z M38.753,59.658c0-0.71-0.576-1.285-1.285-1.285c-0.226,0-0.427,0.074-0.612,0.176   l1.892,1.134C38.748,59.675,38.753,59.667,38.753,59.658z M56.764,40.685c-0.71,0-1.285,0.575-1.285,1.285s0.575,1.286,1.285,1.286   c0.71,0,1.285-0.576,1.285-1.286S57.474,40.685,56.764,40.685z M55.479,24.282c0,0.71,0.575,1.285,1.285,1.285   c0.71,0,1.285-0.575,1.285-1.285c0-0.123-0.038-0.234-0.07-0.347L56.5,23.049C55.921,23.174,55.479,23.665,55.479,24.282z    M60.623,26.534c-0.71,0-1.285,0.576-1.285,1.286s0.576,1.285,1.285,1.285c0.542,0,1.001-0.338,1.19-0.813   c-0.051-0.41-0.109-0.818-0.176-1.226C61.403,26.751,61.046,26.534,60.623,26.534z M60.623,30.072c-0.71,0-1.285,0.575-1.285,1.285   c0,0.71,0.576,1.285,1.285,1.285s1.285-0.575,1.285-1.285C61.908,30.647,61.333,30.072,60.623,30.072z" fill="#3B398C"/></g><g id="Layer_15"><path d="M26,40.5c-1.379,0-2.5-1.121-2.5-2.5s1.121-2.5,2.5-2.5h12c1.379,0,2.5,1.121,2.5,2.5s-1.121,2.5-2.5,2.5   H26z M38,30.5c-1.379,0-2.5-1.121-2.5-2.5s1.121-2.5,2.5-2.5s2.5,1.121,2.5,2.5S39.379,30.5,38,30.5z M26,30.5   c-1.379,0-2.5-1.121-2.5-2.5s1.121-2.5,2.5-2.5s2.5,1.121,2.5,2.5S27.379,30.5,26,30.5z M32,52.5c-11.304,0-20.5-9.196-20.5-20.5   S20.696,11.5,32,11.5S52.5,20.696,52.5,32S43.304,52.5,32,52.5z M32,16.5c-8.547,0-15.5,6.953-15.5,15.5S23.453,47.5,32,47.5   S47.5,40.547,47.5,32S40.547,16.5,32,16.5z" fill="#FAA74A"/></g><g id="Layer_16"><path d="M26,39c-0.552,0-1-0.448-1-1s0.448-1,1-1h12c0.552,0,1,0.448,1,1s-0.448,1-1,1H26z M38,29   c-0.552,0-1-0.448-1-1s0.448-1,1-1s1,0.448,1,1S38.552,29,38,29z M26,29c-0.552,0-1-0.448-1-1s0.448-1,1-1s1,0.448,1,1   S26.552,29,26,29z M32,51c-10.477,0-19-8.523-19-19s8.523-19,19-19s19,8.523,19,19S42.476,51,32,51z M32,15   c-9.374,0-17,7.626-17,17s7.626,17,17,17s17-7.626,17-17S41.374,15,32,15z" fill="#FFE3A6"/></g><g id="Layer_22"><path d="M5.146,34.895c0-16.404,13.345-29.749,29.749-29.749c7.63,0,13.954,2.245,19.226,6.985   C48.671,6.07,40.773,2.251,32,2.251C15.596,2.251,2.251,15.596,2.251,32c0,8.773,3.818,16.671,9.88,22.12   C7.391,48.849,5.146,42.525,5.146,34.895z" fill="#2F2B75"/></g><g id="Layer_24"><path d="M5.425,30.826c-0.035,0.252-0.066,0.505-0.094,0.76c-0.014-0.075-0.023-0.151-0.023-0.229   C5.308,31.167,5.351,30.988,5.425,30.826z M5.356,38.763c-0.015-0.136-0.027-0.274-0.04-0.411   c-0.002,0.027-0.008,0.053-0.008,0.081C5.308,38.547,5.328,38.657,5.356,38.763z M32.323,3.055c0,0.71,0.576,1.285,1.285,1.285   c0.71,0,1.285-0.575,1.285-1.285c0-0.251-0.075-0.483-0.199-0.681c-0.69-0.062-1.386-0.101-2.089-0.115   C32.431,2.479,32.323,2.753,32.323,3.055z M6.593,18.491c0.71,0,1.285-0.575,1.285-1.285c0-0.587-0.396-1.076-0.933-1.23   c-0.446,0.694-0.861,1.41-1.249,2.142C5.927,18.347,6.241,18.491,6.593,18.491z M6.173,43.179   c-0.185-0.696-0.343-1.406-0.478-2.128c-0.239,0.233-0.388,0.558-0.388,0.918C5.308,42.532,5.671,43.005,6.173,43.179z    M10.452,12.383c-0.71,0-1.285,0.575-1.285,1.285s0.576,1.285,1.285,1.285s1.285-0.575,1.285-1.285S11.162,12.383,10.452,12.383z    M4.019,24.281c0-0.398-0.182-0.753-0.467-0.988c-0.226,0.738-0.424,1.489-0.593,2.25C3.561,25.437,4.019,24.914,4.019,24.281z    M6.593,22.029c0.71,0,1.285-0.575,1.285-1.285c0-0.71-0.576-1.285-1.285-1.285s-1.285,0.575-1.285,1.285   C5.308,21.454,5.883,22.029,6.593,22.029z M5.308,24.281c0,0.71,0.576,1.285,1.285,1.285c0.019,0,0.036-0.005,0.054-0.005   c0.248-0.75,0.524-1.487,0.83-2.209c-0.231-0.219-0.541-0.356-0.884-0.356C5.883,22.996,5.308,23.572,5.308,24.281z M5.308,27.819   c0,0.397,0.184,0.747,0.466,0.983c0.158-0.758,0.347-1.506,0.562-2.242C5.749,26.679,5.308,27.197,5.308,27.819z M22.03,4.341   c0.523,0,0.97-0.313,1.171-0.761c-0.597,0.185-1.184,0.39-1.764,0.611C21.614,4.285,21.815,4.341,22.03,4.341z M25.889,4.341   c0.71,0,1.285-0.575,1.285-1.285c0-0.141-0.03-0.272-0.073-0.399c-0.841,0.14-1.67,0.313-2.486,0.522   C24.68,3.83,25.222,4.341,25.889,4.341z M22.03,5.308c-0.71,0-1.285,0.575-1.285,1.285s0.576,1.285,1.285,1.285   s1.285-0.575,1.285-1.285S22.74,5.308,22.03,5.308z M28.463,3.055c0,0.71,0.576,1.285,1.285,1.285s1.285-0.575,1.285-1.285   c0-0.293-0.102-0.56-0.267-0.777c-0.721,0.03-1.435,0.085-2.142,0.165C28.525,2.626,28.463,2.833,28.463,3.055z M15.323,7.377   c-0.209,0.142-0.416,0.287-0.621,0.434C14.952,7.731,15.166,7.58,15.323,7.377z M14.312,8.845c-0.71,0-1.285,0.575-1.285,1.285   s0.576,1.285,1.285,1.285s1.285-0.575,1.285-1.285S15.021,8.845,14.312,8.845z M16.886,6.593c0,0.71,0.576,1.285,1.285,1.285   s1.285-0.575,1.285-1.285c0-0.532-0.323-0.988-0.784-1.184c-0.6,0.302-1.188,0.624-1.764,0.965   C16.895,6.445,16.886,6.518,16.886,6.593z M10.553,11.406c0.621-0.049,1.114-0.535,1.172-1.154   C11.324,10.626,10.933,11.01,10.553,11.406z M4.019,31.357c0-0.71-0.576-1.285-1.285-1.285c-0.149,0-0.291,0.028-0.423,0.075   C2.273,30.76,2.251,31.377,2.251,32c0,0.183,0.004,0.365,0.007,0.548c0.147,0.06,0.306,0.094,0.475,0.094   C3.444,32.642,4.019,32.067,4.019,31.357z M18.171,8.845c-0.71,0-1.285,0.575-1.285,1.285c0,0.329,0.127,0.626,0.33,0.853   c0.679-0.503,1.38-0.978,2.101-1.423C19.107,9.138,18.675,8.845,18.171,8.845z M28.758,5.784c0.54-0.114,1.084-0.214,1.634-0.298   c-0.19-0.111-0.408-0.178-0.643-0.178C29.347,5.308,28.993,5.496,28.758,5.784z M42.149,4.035   c-0.677-0.247-1.366-0.467-2.065-0.665c0.141,0.557,0.641,0.971,1.242,0.971C41.642,4.341,41.927,4.224,42.149,4.035z    M25.889,5.308c-0.71,0-1.285,0.575-1.285,1.285c0,0.128,0.024,0.249,0.059,0.366c0.797-0.293,1.611-0.551,2.439-0.775   C26.93,5.676,26.455,5.308,25.889,5.308z M37.467,4.341c0.71,0,1.285-0.575,1.285-1.285c0-0.01-0.002-0.019-0.002-0.029   c-0.811-0.189-1.634-0.345-2.468-0.466c-0.064,0.152-0.1,0.319-0.1,0.494C36.182,3.765,36.758,4.341,37.467,4.341z M41.327,5.308   c-0.306,0-0.583,0.111-0.804,0.29c0.656,0.11,1.3,0.245,1.935,0.396C42.241,5.587,41.819,5.308,41.327,5.308z M49.337,7.842   c-0.507-0.365-1.026-0.716-1.557-1.049c0.097,0.614,0.624,1.085,1.265,1.085C49.146,7.878,49.243,7.864,49.337,7.842z    M53.362,11.322c-0.535-0.553-1.092-1.086-1.669-1.596c-0.044,0.128-0.074,0.262-0.074,0.405c0,0.001,0,0.003,0,0.004   c0.548,0.389,1.087,0.798,1.614,1.234C53.278,11.357,53.32,11.339,53.362,11.322z M46.268,5.904   c-0.373-0.205-0.751-0.402-1.134-0.591c-0.614,0.025-1.114,0.478-1.212,1.07c0.812,0.241,1.606,0.519,2.382,0.833   c0.103-0.185,0.167-0.395,0.167-0.623C46.471,6.339,46.395,6.103,46.268,5.904z M2.734,29.105c0.71,0,1.285-0.575,1.285-1.285   c0-0.702-0.564-1.271-1.263-1.283c-0.154,0.828-0.275,1.667-0.359,2.518C2.505,29.083,2.616,29.105,2.734,29.105z M4.019,41.97   c0-0.335-0.129-0.638-0.34-0.865c0.105,0.325,0.214,0.648,0.329,0.969C4.011,42.039,4.019,42.005,4.019,41.97z M4.019,38.432   c0-0.71-0.576-1.285-1.285-1.285c-0.011,0-0.022,0.002-0.034,0.003c0.146,0.833,0.327,1.655,0.541,2.463   C3.699,39.416,4.019,38.962,4.019,38.432z M6.593,46.793c0.269,0,0.519-0.083,0.725-0.225c-0.317-0.76-0.598-1.538-0.844-2.334   c-0.55,0.051-0.998,0.445-1.126,0.969c0.254,0.511,0.523,1.014,0.805,1.508C6.291,46.761,6.438,46.793,6.593,46.793z M2.734,36.18   c0.71,0,1.285-0.575,1.285-1.285c0-0.71-0.576-1.285-1.285-1.285c-0.153,0-0.299,0.028-0.435,0.077   c0.047,0.834,0.129,1.659,0.244,2.474C2.605,36.17,2.668,36.18,2.734,36.18z M10.452,15.921c-0.71,0-1.285,0.575-1.285,1.285   c0,0.595,0.406,1.09,0.954,1.237c0.443-0.665,0.912-1.313,1.406-1.939C11.298,16.153,10.903,15.921,10.452,15.921z M13.026,13.668   c0,0.297,0.105,0.568,0.275,0.785c0.583-0.616,1.193-1.206,1.827-1.771c-0.223-0.185-0.505-0.3-0.816-0.3   C13.602,12.383,13.026,12.958,13.026,13.668z M11.401,53.439c0.025-0.027,0.051-0.054,0.073-0.083   c-0.535-0.639-1.034-1.293-1.5-1.962c-0.123,0.05-0.235,0.118-0.336,0.201C10.2,52.235,10.788,52.85,11.401,53.439z M7.878,49.045   c0-0.641-0.471-1.168-1.085-1.265c0.333,0.531,0.684,1.049,1.049,1.557C7.864,49.243,7.878,49.146,7.878,49.045z" fill="#3B398C"/></g><g id="Layer_21"><path d="M32,3.055C47.96,3.055,60.945,16.04,60.945,32S47.96,60.945,32,60.945S3.055,47.96,3.055,32   S16.04,3.055,32,3.055 M32,0.322C14.504,0.322,0.322,14.504,0.322,32c0,17.495,14.183,31.678,31.678,31.678   c17.495,0,31.678-14.183,31.678-31.678C63.678,14.504,49.495,0.322,32,0.322L32,0.322z" fill="#FAA74A"/></g><g id="Layer_20"><path d="M32,1.447c16.847,0,30.553,13.706,30.553,30.553S48.847,62.553,32,62.553S1.447,48.847,1.447,32   S15.153,1.447,32,1.447 M32,0C14.327,0,0,14.327,0,32c0,17.673,14.327,32,32,32c17.673,0,32-14.327,32-32C64,14.327,49.673,0,32,0   L32,0z" fill="#FFE3A6"/></g></svg>